<svg xmlns="http://www.w3.org/2000/svg" viewBox="0 0 512 512" width="55" height="55"><path d="M197.964 32.041h-71.987c-5.521 0-9.998 4.476-9.998 9.998 0 5.522 4.477 9.998 9.998 9.998h71.987c5.521 0 9.998-4.476 9.998-9.998 0-5.522-4.477-9.998-9.998-9.998zm-28.926 424.612c-1.859-1.861-4.438-2.93-7.068-2.93s-5.209 1.07-7.069 2.93a10.072 10.072 0 00-2.929 7.069c0 2.63 1.069 5.209 2.929 7.069 1.86 1.86 4.439 2.929 7.069 2.929s5.209-1.07 7.068-2.929a10.073 10.073 0 002.93-7.069c0-2.64-1.069-5.21-2.93-7.069z" data-original="#000000" class="active-path" data-old_color="#000000" fill="#FFF"/><path d="M447.633 317.864l-36.785-63.713c15.083-13.975 19.107-37.036 8.401-55.579-6.019-10.424-15.735-17.881-27.363-20.996-8.333-2.234-16.933-2.031-24.976.473l-36.778-63.701a9.998 9.998 0 00-16.53-1.165L199.094 259.411l-48.056 27.745c-27.422 15.831-36.85 51.021-21.018 78.443 7.67 13.284 20.052 22.786 34.869 26.755a57.72 57.72 0 0014.955 1.982c9.95 0 19.77-2.609 28.619-7.719l5.723-3.304 19.961 34.573H19.996V84.031h283.948v2.999c0 5.522 4.477 9.998 9.998 9.998s9.998-4.476 9.998-9.998V39.3c0-21.644-17.609-39.254-39.254-39.254H39.254C17.609.046 0 17.655 0 39.3v433.4c0 21.644 17.609 39.254 39.254 39.254h245.434c21.644 0 39.254-17.609 39.254-39.254V349.312l116.44-16.551a9.995 9.995 0 007.251-14.897zM19.996 39.3c0-10.619 8.639-19.257 19.257-19.257h245.434c10.618 0 19.257 8.638 19.257 19.257v24.734H19.996V39.3zm366.715 157.591c6.468 1.733 11.873 5.881 15.221 11.68 5.134 8.893 4.178 19.656-1.56 27.437l-22.988-39.817a25.029 25.029 0 019.327.7zM198.465 369.3c-8.658 4.999-18.747 6.326-28.401 3.739-9.656-2.588-17.727-8.78-22.726-17.439-10.318-17.873-4.173-40.809 13.699-51.128l41.076-23.715 37.424 64.829-41.072 23.714zm33.039 4.015l18.031-10.41 23.621 40.911-18.031 10.41-23.621-40.911zm72.44 99.384c0 10.619-8.639 19.257-19.257 19.257H39.254c-10.618 0-19.257-8.638-19.257-19.257v-34.817h283.948v34.817zm0-54.813h-15.167l3.033-1.752c4.782-2.76 6.421-8.875 3.659-13.658l-26.207-45.393 34.682-4.93v65.733zm-45.452-79.469l-40.686-70.469 72.718-92.862 84.719 146.736-116.751 16.595zm138.089-19.628l-92.766-160.676 16.403-20.946 102.698 177.878-26.335 3.744zM510.658 146.14c-2.761-4.781-8.874-6.421-13.657-3.659l-49.023 28.304c-4.782 2.76-6.421 8.875-3.659 13.657a9.995 9.995 0 0013.657 3.659l49.023-28.304c4.782-2.76 6.421-8.875 3.659-13.657zm-90.494-43.897c-5.335-1.43-10.815 1.737-12.245 7.07l-7.147 26.674c-1.43 5.335 1.736 10.817 7.07 12.246.867.232 1.737.343 2.594.343 4.414 0 8.454-2.946 9.651-7.413l7.147-26.674c1.429-5.335-1.736-10.817-7.07-12.246zm76.36 130.794l-27.566-7.387c-5.335-1.43-10.815 1.737-12.245 7.07-1.43 5.334 1.736 10.816 7.07 12.246l27.566 7.387c.867.232 1.737.343 2.594.343 4.414 0 8.454-2.946 9.651-7.413 1.429-5.335-1.736-10.818-7.07-12.246z" data-original="#000000" class="active-path" data-old_color="#000000" fill="#FFF"/><path d="M189.632 113.194H51.669c-5.521 0-9.998 4.476-9.998 9.998s4.477 9.998 9.998 9.998h137.964c5.521 0 9.998-4.476 9.998-9.998s-4.478-9.998-9.999-9.998zm7.072 50.922a10.03 10.03 0 00-7.069-2.93c-2.64 0-5.209 1.06-7.069 2.93a10.03 10.03 0 00-2.929 7.069c0 2.63 1.06 5.209 2.929 7.069a10.059 10.059 0 007.069 2.929c2.63 0 5.209-1.07 7.069-2.929a10.077 10.077 0 002.929-7.069c0-2.63-1.069-5.209-2.929-7.069zm-48.398-2.931H51.669c-5.521 0-9.998 4.476-9.998 9.998s4.477 9.998 9.998 9.998h96.637c5.521 0 9.998-4.476 9.998-9.998s-4.477-9.998-9.998-9.998zm17.573 47.991H90.074c-5.521 0-9.998 4.476-9.998 9.998s4.476 9.998 9.998 9.998h75.804c5.521 0 9.998-4.476 9.998-9.998s-4.476-9.998-9.997-9.998zm-113.83 0h-.464c-5.521 0-9.998 4.476-9.998 9.998s4.477 9.998 9.998 9.998h.464c5.521 0 9.998-4.476 9.998-9.998s-4.477-9.998-9.998-9.998z" data-original="#000000" class="active-path" data-old_color="#000000" fill="#FFF"/></svg>