<svg xmlns="http://www.w3.org/2000/svg" viewBox="0 0 511.999 511.999" width="61" height="61"><path d="M324.126 185.554a10.055 10.055 0 00-7.069-2.929 10.074 10.074 0 00-7.069 2.929 10.055 10.055 0 00-2.929 7.069c0 2.63 1.07 5.209 2.929 7.068a10.073 10.073 0 007.069 2.93c2.64 0 5.209-1.07 7.069-2.93a10.026 10.026 0 002.929-7.068 10.01 10.01 0 00-2.929-7.069z" data-original="#000000" class="active-path" data-old_color="#000000" fill="#FFF"/><path d="M489.781 72.765c-4.786-2.756-10.898-1.112-13.654 3.672l-45.351 78.713a48.465 48.465 0 00-12.337.015l-.05.006c-2.809.37-5.583.978-8.281 1.86l-5.249 1.714-12.033 3.224c-6.124.558-12.701-.899-18.453-4.219l-53.309-30.796c-6.726-3.885-9.037-12.518-5.154-19.244l9.859-17.077.002-.004 43.783-75.619c2.766-4.778 1.136-10.895-3.643-13.662-4.778-2.765-10.895-1.136-13.662 3.643L313.47 71.968l-4.556-2.63c-19.518-11.27-180.862-41.3-213.009-47.204l-.204-.036c-19.19-3.111-37.358 4.853-46.276 20.3l-16.452 28.5c-11.425 19.787-3.592 45.937 17.371 59.493l-3.932 6.812c-3.39 5.872-4.291 12.712-2.536 19.262 1.755 6.55 5.956 12.023 11.828 15.413l2.083 1.203c3.912 2.259 8.252 3.412 12.652 3.412 2.205 0 4.424-.29 6.612-.877 6.549-1.755 12.023-5.955 15.413-11.827l3.896-6.749 23.551 13.597c-31.831 10.621-60.379 30.438-81.519 56.849a173.28 173.28 0 00-13.736 19.877c-.266.381-.5.782-.711 1.196a176.073 176.073 0 00-22.607 67.275c-.053.319-.091.639-.113.961a173.503 173.503 0 00-1.174 20.061c0 45.47 17.422 86.945 45.935 118.111a10.013 10.013 0 001.692 1.817c18.547 19.71 41.594 35.14 67.489 44.616.409.175.826.323 1.252.442 18.381 6.568 38.166 10.157 58.776 10.157 22.974 0 44.924-4.454 65.044-12.531a9.973 9.973 0 001.516-.621c24.689-10.182 46.558-25.848 64.081-45.476a10.077 10.077 0 001.603-1.806c26.71-30.752 42.899-70.876 42.899-114.71a177.618 177.618 0 00-1.129-19.782c-.095-.843-.174-1.689-.281-2.528a9.256 9.256 0 00-.041-.291l-1.149-7.312 2.687-4.655c5.446 1.927 11.033 2.878 16.5 2.878 15.078 0 29.205-7.113 36.715-20.12l16.455-28.501 38.677-66.991c5.468-9.473 1.683-21.933-8.439-27.776-.075-.043-.152-.081-.228-.124l43.347-75.235c2.758-4.783 1.114-10.896-3.671-13.653zm-238.856.833l8.382 31.286-14.312-2.484-8.577-32.013c5.034 1.096 9.884 2.169 14.507 3.211zm-72.916-15.341l8.996 33.575-14.312-2.484-9.098-33.954c4.805.949 9.618 1.905 14.414 2.863zM75.143 153.792a5.348 5.348 0 01-3.271 2.51 5.343 5.343 0 01-4.088-.538l-2.083-1.203H65.7a5.35 5.35 0 01-2.509-3.271 5.347 5.347 0 01.538-4.088l3.896-6.75 11.416 6.591-3.898 6.749zm47.145 37.149L99.533 230.39l-44.816 8.417c17.401-21.4 40.547-38.144 67.571-47.866zm33.68 34.917c8.779 0 17.33-4.553 22.027-12.687l3.896-6.75 23.111 13.345c7.984 4.61 17.146 6.196 25.795 4.47 3.86-.771 8.226.028 11.978 2.195l27.649 15.963c9.224 5.326 16.332 13.749 19.502 23.111a9.995 9.995 0 004.471 5.452l9.538 5.507-4.079 7.065c-6.999 12.122-2.83 27.678 9.291 34.676l.001.001 2.082 1.201a25.223 25.223 0 009.732 3.219l-36.951 37.275-49.284-11.065-5.246-16.146-11.227-34.551 17.076-25.948c3.035-4.612 1.757-10.812-2.855-13.848-4.61-3.033-10.812-1.757-13.848 2.855l-16.755 25.461h-53.318l-30.935-47.605 14.991-25.989a25.266 25.266 0 008.627 8.194l2.083 1.202a25.19 25.19 0 0012.648 3.397zm-6.707-29.274l3.896-6.749 6.962 4.019 4.454 2.572-3.895 6.749a5.396 5.396 0 01-7.36 1.974l-2.083-1.203-.002-.001c-1.247-.72-2.138-1.882-2.51-3.271s-.182-2.843.538-4.09zm65.964 156.941l-19.934 14.483-19.934 14.483-39.868-28.966 15.228-46.869h49.28l15.228 46.869zm-176.16-91.432l62.096-11.663 30.982 47.677-16.484 50.73-40.473 9.087-8.754 1.966-44.719-45.922a154.76 154.76 0 0117.352-51.875zM46.92 424.03c-16.228-23.802-26.014-52.331-26.818-83.058l32.587 33.463-5.769 49.595zm17.633 21.471l7.727-66.431 46.633-10.471 2.275-.511 43.843 31.855v47.061l-47.355 33.941c-20.122-8.061-38.174-20.223-53.123-35.444zm110.641 46.502a154.995 154.995 0 01-33.518-3.657l33.941-24.326 37.901 23.189a154.906 154.906 0 01-38.324 4.794zm62.77-13.279l-52.609-32.188v-46.593l32.277-23.45 11.568-8.404 3.152.708 46.065 10.343 10.158 63.499c-14.183 15.191-31.372 27.539-50.611 36.085zm67.423-57.579l-7.493-46.843 32.367-32.651c-.894 29.238-9.913 56.463-24.874 79.494zm23.201-121.026a5.396 5.396 0 01-7.363 1.972l-2.082-1.201a5.4 5.4 0 01-1.972-7.362l3.896-6.75 11.416 6.591-3.895 6.75zm23.217-19.106l-44.318-25.587c-5.195-12.523-14.687-23.202-27.064-30.348l-27.648-15.963c-8.014-4.627-17.21-6.222-25.892-4.487-3.829.768-8.158-.028-11.881-2.178l-31.769-18.341-.002-.001-9.873-5.7-75.651-43.678-.008-.005-28.732-16.589-.007-.003-6.336-3.658c-12.372-7.144-17.99-20.947-13.289-31.674 4.225 8.154 10.933 15.4 19.746 20.488l152.381 87.977c7.985 4.61 17.147 6.196 25.796 4.47 3.857-.776 8.224.027 11.977 2.194l27.648 15.963c9.224 5.326 16.332 13.749 19.502 23.111a9.995 9.995 0 004.471 5.452l47.408 27.372c7.845 4.529 16.528 6.873 25.15 6.873.622 0 1.243-.021 1.864-.045-6.754 9.348-21.295 11.389-33.473 4.357zm50.974-34.466c-2.871 4.973-7.888 8.397-14.125 9.644-6.716 1.343-13.959.036-20.393-3.68l-44.318-25.588c-5.196-12.523-14.687-23.202-27.064-30.348l-27.65-15.963c-8.015-4.627-17.21-6.219-25.891-4.486-3.828.769-8.158-.028-11.881-2.178L79.076 85.972c-13.116-7.573-18.648-22.636-12.33-33.577 4.713-8.163 14.778-12.307 25.659-10.575 14.912 2.739 31.8 5.921 49.345 9.311l13.28 49.563a9.997 9.997 0 007.947 7.264l36.024 6.253a10 10 0 0011.367-12.438l-10.472-39.081c4.927 1.011 9.794 2.019 14.566 3.017l12.871 48.039a9.997 9.997 0 007.947 7.264l36.024 6.253a10 10 0 0011.367-12.438l-9.654-36.031c13.453 3.334 22.822 6.083 25.899 7.859l4.546 2.624-4.869 8.433c-9.395 16.272-3.802 37.158 12.469 46.557l46.84 27.058-14.317 3.836c-5.333 1.43-8.498 6.912-7.07 12.245 1.197 4.467 5.236 7.414 9.651 7.414a9.98 9.98 0 002.594-.344l47.774-12.801a46.038 46.038 0 008.172-1.849l5.837-1.906 11.218-3.006c6.155-.608 12.783.837 18.573 4.18.514.297.772.646.887.865l-38.442 66.586zM509.02 44.572a10.073 10.073 0 00-7.069-2.93c-2.63 0-5.209 1.07-7.069 2.93a10.068 10.068 0 00-2.929 7.068c0 2.64 1.07 5.209 2.929 7.069a10.072 10.072 0 007.069 2.929c2.629 0 5.209-1.069 7.069-2.929a10.072 10.072 0 002.929-7.069c0-2.629-1.07-5.209-2.929-7.068z" data-original="#000000" class="active-path" data-old_color="#000000" fill="#FFF"/></svg>