<svg xmlns="http://www.w3.org/2000/svg" height="55" viewBox="0 0 512 512" width="55"><path d="M70 352c5.52 0 10-4.48 10-10s-4.48-10-10-10-10 4.48-10 10 4.48 10 10 10zm0 0" data-original="#000000" class="active-path" data-old_color="#000000" fill="#FFF"/><path d="M482 0H30C13.457 0 0 13.457 0 30v452c0 16.543 13.457 30 30 30h452c16.543 0 30-13.457 30-30V30c0-16.543-13.457-30-30-30zm-56 492H292.605l84.793-93.273A10.087 10.087 0 00380 392V20h46zm-146-15.867V402h67.395zM20 482V30c0-5.516 4.484-10 10-10h330v362h-90c-5.523 0-10 4.477-10 10v100H30c-5.516 0-10-4.484-10-10zm472 0c0 5.516-4.484 10-10 10h-36V20h36c5.516 0 10 4.484 10 10zm0 0" data-original="#000000" class="active-path" data-old_color="#000000" fill="#FFF"/><path d="M84.738 213.68l20 34.64a10.013 10.013 0 006.075 4.66c2.562.684 5.289.325 7.585-1l22.579-13.035c5.738 4.422 12.16 8.09 19.023 10.864V276c0 5.523 4.477 10 10 10h40c5.523 0 10-4.477 10-10v-26.176c6.91-2.77 13.277-6.406 19.035-10.87l22.567 13.026a10.013 10.013 0 007.586 1 10.013 10.013 0 006.074-4.66l20-34.64c2.761-4.782 1.12-10.899-3.66-13.66l-22.473-12.977c.586-3.813.871-7.465.871-11.043s-.285-7.23-.871-11.043l22.473-12.977c4.78-2.761 6.421-8.878 3.66-13.66l-20-34.64a10.013 10.013 0 00-6.074-4.66 10.018 10.018 0 00-7.586 1l-22.563 13.027c-5.762-4.465-12.129-8.102-19.039-10.875V76c0-5.523-4.477-10-10-10h-40c-5.523 0-10 4.477-10 10v26.188c-6.86 2.773-13.281 6.44-19.023 10.867l-22.579-13.035a10.013 10.013 0 00-7.585-1 10.013 10.013 0 00-6.075 4.66l-20 34.64c-2.758 4.782-1.12 10.899 3.66 13.66l22.47 12.973c-1.169 7.543-1.165 14.54 0 22.094l-22.47 12.973c-4.78 2.761-6.418 8.878-3.66 13.66zm42.325-12.89a9.997 9.997 0 004.726-10.974c-2.398-10.082-2.398-17.57 0-27.625a10.006 10.006 0 00-4.726-10.98l-20.004-11.55 10-17.317 20.02 11.558a10.005 10.005 0 0011.862-1.386c6.688-6.305 14.743-10.91 23.942-13.68a9.993 9.993 0 007.117-9.574V86h20v23.262a10 10 0 007.117 9.574c9.207 2.77 17.262 7.375 23.938 13.676a10.006 10.006 0 0011.867 1.39l20.02-11.562 10 17.32-20 11.55a9.992 9.992 0 00-4.727 10.977c1.2 5.047 1.785 9.567 1.785 13.813s-.586 8.766-1.785 13.813a9.992 9.992 0 004.726 10.976l20 11.55-10 17.321-20.02-11.558a10 10 0 00-11.866 1.386c-6.676 6.301-14.73 10.907-23.938 13.676a10.001 10.001 0 00-7.117 9.578V266h-20v-23.262c0-4.41-2.89-8.297-7.11-9.574-9.214-2.777-17.273-7.383-23.949-13.68a10.005 10.005 0 00-11.863-1.386l-20.02 11.562-10-17.32zm0 0" data-original="#000000" class="active-path" data-old_color="#000000" fill="#FFF"/><path d="M190 216c22.055 0 40-17.945 40-40s-17.945-40-40-40-40 17.945-40 40 17.945 40 40 40zm0-60c11.027 0 20 8.973 20 20s-8.973 20-20 20-20-8.973-20-20 8.973-20 20-20zm-90 186c0 5.523 4.477 10 10 10h200c5.523 0 10-4.477 10-10s-4.477-10-10-10H110c-5.523 0-10 4.477-10 10zm130 40H70c-5.523 0-10 4.477-10 10s4.477 10 10 10h160c5.523 0 10-4.477 10-10s-4.477-10-10-10zm0 50H70c-5.523 0-10 4.477-10 10s4.477 10 10 10h160c5.523 0 10-4.477 10-10s-4.477-10-10-10zm0 0" data-original="#000000" class="active-path" data-old_color="#000000" fill="#FFF"/></svg>