<svg xmlns="http://www.w3.org/2000/svg" viewBox="0 0 502 502" width="512" height="512"><path d="M492 345.495h-25.333V93.505c0-5.522-4.477-10-10-10H45.333c-5.523 0-10 4.478-10 10v251.99H10c-5.523 0-10 4.478-10 10 0 34.738 28.262 63 63 63h376c34.738 0 63-28.262 63-63 0-5.522-4.477-10-10-10zM55.333 103.505h391.333v241.99h-20v-212c0-5.522-4.477-10-10-10H85.333c-5.523 0-10 4.478-10 10v212h-20v-241.99zm351.333 241.99H95.333v-202h311.333v202zm32.334 53H63c-20.269 0-37.307-14.096-41.826-33h459.652c-4.519 18.904-21.557 33-41.826 33z" data-original="#000000" class="active-path" data-old_color="#000000" fill="#fff"/><path d="M118.667 175.495h97c5.523 0 10-4.478 10-10s-4.477-10-10-10h-97c-5.523 0-10 4.478-10 10s4.477 10 10 10zm129 0h16c5.523 0 10-4.478 10-10s-4.477-10-10-10h-16c-5.523 0-10 4.478-10 10s4.477 10 10 10z" data-original="#000000" class="active-path" data-old_color="#000000" fill="#fff"/></svg>