<svg version="1.1" id="Слой_1" xmlns="http://www.w3.org/2000/svg" x="0" y="0" viewBox="0 0 810.1 285.4" xml:space="preserve"><style>.st0{fill:#fff}.st1{fill:#01ca5d}</style><path class="st0" d="M4.2 167.6c.9-1.1.6-2.5.8-3.7 1.1-6.4 2.8-12.7 5-18.8 3.2-8.9 7.8-17 13.2-24.7 1.5-2.1 3.3-4.1 4.9-6.2.9-1.1 1.6-1.2 2.8-.1 9.3 9.3 18.5 18.6 27.9 27.9.9.9.8 1.5.1 2.3-5.6 6.9-9.1 14.8-11.1 23.4-1.5 6.7-1.5 13.4-.8 20.2 1.1 10 4.9 19.1 10.9 27.1 8.2 10.9 19 18.3 32.3 21.6 6.4 1.6 12.9 2.4 19.4 3 8.9.8 17.8 1 26.7.7 5.4-.2 10.9-.4 16.3-1.1 1.8-.3 3.3.1 4.8 1.6 12.4 12.5 24.9 25 37.3 37.4.5.5 1.1 1 1.7 1.4-.1.2-.2.3-.3.5h-2.2c-30.1 0-60.3-.2-90.4 0-36.7.3-74.3-21.8-91.1-59.9-4-9-6.5-18.4-7.8-28.1-.1-.7.2-1.5-.6-2.1.2-7.5.2-14.9.2-22.4z"/><path class="st1" d="M487.8 286.6c0-1.7-.1-3.3.1-5 .1-1.6-.3-2.1-2-2.1-6.4.1-12.8 0-19.2.1-1.8 0-2.4-.5-2.3-2.3.2-3.5.1-7 0-10.5-.1-1.8.4-2.5 2.4-2.5 11.8.1 23.5.1 35.3 0 2.7 0 5.5.1 8.2-.7 2.9-.9 4.5-2.9 4.7-5.6.2-3.3-.9-4.6-3.8-6.3-2.6-1.5-5.2-1.4-7.9-1.5-5.8-.1-11.6-.1-17.3 0-4.5 0-8.9-.8-13.1-2-4.1-1.2-6.9-4.1-8.1-8.3-2.3-8-2.4-16 1.6-23.5 2.4-4.5 6.8-7.1 11.7-8.4 2.8-.7 5.6-1.3 8.5-1.3 1 0 1.6-.3 1.4-1.4v-.4c.2-1.7-.8-3.9.4-4.9 1-.8 3.2-.3 4.8-.3h12.4c1.2 0 1.6.3 1.5 1.5-.1 1.2.1 2.5 0 3.7-.1 1.5.5 1.8 1.9 1.8 6.3-.1 12.7 0 19-.1 1.9 0 2.3.6 2.3 2.3-.1 3.4-.2 6.9 0 10.3.1 2.2-.7 2.6-2.7 2.6-9.7-.1-19.4-.1-29.1 0-3.3 0-6.6-.1-9.9.6-3.9.9-5.4 2.4-5.3 6.1 0 3.3 2 5.5 5.5 6.1 1.9.3 3.8.3 5.8.4 6.9.2 13.9-.4 20.8.3 5.9.6 11.2 2.6 14.9 7.7 2.1 2.8 3.1 6.1 3.5 9.6.6 5.7.2 11.5-2.5 16.6-3.2 6.1-8.4 9.7-15.5 10.1-2.2.1-4.4.1-6.6 0-1.7-.1-2.1.5-2 2.1.1 1.6 0 3.3-.1 4.9-6.6.3-12.9.3-19.3.3z"/><path class="st0" d="M803.7 279.5c-6.5 0-13.1.2-19.6-.1-5.9-.2-11.4-1.7-15.2-6.7-3.2-4.1-4.6-8.9-4.7-14.1v-34.5c0-3.2.4-2.8-2.9-2.8-3 0-5.9-.1-8.9 0-1.3 0-1.7-.4-1.6-1.7.1-3.8.1-7.6 0-11.3 0-1.4.5-1.6 1.7-1.6 3.3.1 6.6 0 9.9.1 1.4 0 1.9-.4 1.9-1.8-.1-7.4 0-14.9-.1-22.3 0-1.7.4-2.3 2.2-2.2 4.9.1 9.9.1 14.9 0 1.8 0 2.2.6 2.1 2.2-.1 7.4 0 14.7-.1 22.1 0 1.7.5 2 2.1 2 6.1-.1 12.2 0 18.4 0v14.5h-18.6c-1.2 0-1.9.2-1.9 1.6.1 10.1 0 20.2.2 30.3.2 8 3.5 11.2 11.6 11.6 2.9.1 5.8.2 8.6.2v14.5z"/><path class="st1" d="M204.9 270.2c-1.1-.3-1.6-1-2.2-1.6-12.1-12.1-24.1-24.2-36.2-36.2-1.7-1.7-2.4-3.3-2.2-5.8.6-10.1 1.2-20.2.3-30.3-.4-4.3-.7-8.7-1.2-13-.5-3.9-.6-7.8-1.2-11.7-1.6-9.9-5.2-18.9-11.4-26.8-5.7-7.3-12.7-13.1-21.1-17-4.5-2.1-9.1-3.6-14-4.4-4.1-.7-8.2-1.3-12.3-1.1-9.9.4-19.3 2.6-27.8 7.7-2 1.2-3.9 2.4-5.8 3.8-.8.6-1.2.7-2-.1-9.4-9.5-18.9-18.9-28.3-28.3-.9-.9-1-1.6 0-2.4 8.5-6.9 17.6-12.6 27.9-16.6 8.6-3.3 17.4-5.5 26.5-6.5 7.4-.8 14.8-.7 22.2.1 11.5 1.3 22.4 4.5 32.8 9.6 7.4 3.6 14.2 8.1 20.5 13.4 11.6 9.8 20.5 21.6 26.7 35.4 4.3 9.4 6.9 19.2 8.2 29.4.8 6.4.8 12.9.8 19.3v80.7c-.2.6-.2 1.4-.2 2.4zM31.5 90.7C33 85.3 35 80.1 37 74.9c1.5-3.8 2.8-7.8 4.3-11.7 1.3-3.5 2.8-6.9 4.1-10.4 1-2.6 1.8-5.3 2.8-7.9 1.1-2.7 2.1-5.4 3.2-8.2 1.4-3.6 3.2-7 5.3-10.2 6-9 14.1-15.4 24.2-19.1C85 6 89.4 5.3 93.7 4.6c8.2-1.3 16.6-2 24.9-2.4 8.6-.4 17.3-.1 25.9.3 1.4.1 1.6.4 1.4 1.8-2.2 14.7-7.8 28.1-17 39.8-3.6 4.6-8.4 8.1-13.6 10.9-3.8 2.1-7.8 4-11.8 5.4-6.1 2.2-12.3 4-18.6 5.5-11.6 2.7-23.2 5.4-33.7 11.2-6 3.4-11.9 6.9-17.1 11.4-.8.8-1.7 1.5-2.6 2.2z"/><path class="st0" d="M601 230.1v-47.3c0-1.8.4-2.4 2.3-2.3 5 .1 10 .1 15.1 0 1.5 0 1.9.5 1.8 1.9-.1 7.5 0 15-.1 22.5 0 1.6.4 2 2 2 5.9-.1 11.8-.1 17.8 0s11.8 1.3 17.3 4c5.4 2.7 9.3 6.9 11.9 12.2 5.9 11.9 5.8 24.3 1.6 36.6-2.3 6.8-7 11.8-13.1 15.5-5.2 3.1-10.8 4.4-16.8 4.4-12.5.1-25 0-37.6.1-1.8 0-2.1-.6-2.1-2.2-.1-15.9-.1-31.7-.1-47.4zm19.1 13.1V262c0 1-.2 2 1.4 2 5.8-.1 11.6.2 17.3-.5 6.2-.8 11.1-3.4 13-9.8 1.9-6.1 1.8-12.4.5-18.6-1.5-6.8-5.9-10.6-12.7-11.9-5.7-1.1-11.5-.6-17.3-.8-1.7-.1-2.3.4-2.2 2.2.1 6.2 0 12.4 0 18.6zm-338.9 36.3h-23.5c-2.9 0-5.9 0-8.7-.9-6.3-2.1-11.2-5.7-12.5-12.8-1.2-6.5-1.2-12.8 1.4-19.1 1.9-4.7 5.5-7.7 10.2-9.2 4.7-1.5 9.6-2.3 14.6-2.3h25.2c1.6 0 2.3-.3 2.1-2.1-.5-6.4-3.1-9.5-9.3-10.7-3.4-.6-6.9-.6-10.3-.6-9.1-.1-18.3-.1-27.4 0-1.9 0-2.4-.6-2.3-2.4.1-3.6.1-7.3 0-10.9 0-1.4.3-1.9 1.8-1.9 13.6.1 27.2-.1 40.9.1 6.2.1 12.3 1.5 17.4 5.2 4.7 3.4 7.4 8.4 8.4 14.1.5 2.5.7 5 .7 7.6 0 14.5-.1 29 0 43.5 0 1.9-.5 2.3-2.3 2.3-8.9.1-17.7.1-26.4.1zm-6.5-14.6h13.4c1.4 0 1.9-.3 1.9-1.8-.1-3.8-.1-7.6 0-11.3 0-1.6-.5-2-2-1.9-6.3.1-12.5-.1-18.8.1-3 .1-6.1-.1-9 .9-3.3 1.1-4.9 3.9-4.6 8.3.2 3 1.9 4.8 5.3 5.4 4.8.5 9.7.2 13.8.3zm449-14.1h-19.8c-1.5 0-2 .4-1.8 1.9.7 6 2.6 9.4 9.1 10.9 3.7.8 7.4.8 11.1.8 7.1.1 14.2.1 21.3 0 1.6 0 2.2.5 2.1 2.1-.1 3.9-.1 7.7 0 11.6 0 1-.2 1.6-1.3 1.6-10.9-.1-21.9.3-32.8-.2-6.2-.3-12-2.2-17.4-5.3-4.3-2.5-7.5-6.3-9.4-10.9-4.8-11.8-5-23.8-1.5-36 2.2-7.7 7.1-13.4 14.2-16.8 5.2-2.5 11-3.6 16.8-3.6 9.8 0 19.5 0 29.3-.1 1.6 0 2.1.4 2.1 2.1-.1 3.7-.1 7.4 0 11.1 0 1.5-.4 2-2 2-8.7 0-17.3.1-26 .1-3.3 0-6.5.7-9.5 2-2.8 1.2-4.8 3.4-5.3 6.7-.8 4.9-.8 4.9 4.2 4.9h36.1c1.9 0 2.5.6 2.4 2.4-.1 3.6-.1 7.3 0 10.9 0 1.5-.5 1.9-1.9 1.8h-20zM326.3 243v-34.3c0-1.5.3-2 1.9-2 12.6.1 25.2-.1 37.8.1 5.9.1 11.8 1.1 17 4.2 5.2 3 7.8 7.8 8.9 13.5.5 2.4.7 4.9.7 7.4v45.4c0 1.8-.3 2.4-2.2 2.3-4.9-.1-9.8-.1-14.7 0-1.8 0-2.3-.3-2.3-2.2.1-13.2.1-26.4 0-39.6 0-3.3 0-6.6-1.5-9.8-1.1-2.5-2.8-4-5.3-4.5-5.4-1-10.8-.5-16.3-.6-5-.1-5 0-5 5v49.5c0 1.9-.5 2.3-2.3 2.3-5-.1-10-.1-15.1 0-1.5 0-1.8-.4-1.8-1.9.2-11.6.2-23.2.2-34.8zm88.5-1.6c0-6-.1-12 0-18 0-1.6-.3-2.2-2-2.1-3.2.1-6.3 0-9.5.1-1.4 0-2-.3-1.9-1.8.1-3.7.1-7.4 0-11.1 0-1.3.4-1.7 1.6-1.6 3.3.1 6.6-.1 9.9.1 1.6.1 1.9-.5 1.9-2-.1-7.4 0-14.7-.1-22.1 0-1.9.6-2.3 2.3-2.3 5 .1 9.9.1 14.9 0 1.5 0 2 .4 2 2-.1 7.5 0 15-.1 22.5 0 1.4.4 1.9 1.8 1.8 5.4-.1 10.9.1 16.3-.1 2-.1 2.4.6 2.3 2.4-.1 3.4-.1 6.9 0 10.3 0 1.4-.4 1.9-1.9 1.9-5.6-.1-11.1 0-16.7-.1-1.4 0-1.9.3-1.9 1.8.1 10 .1 20 .2 29.9.1 4.1 1 8.1 5 10.3 2.6 1.5 5.6 1.5 8.5 1.6 1.7.1 3.4.1 5.2 0 1.1 0 1.6.3 1.6 1.5-.1 3.9 0 7.8 0 11.8 0 .8-.2 1.3-1.1 1.3-7.5-.3-15 .7-22.5-.5-8.7-1.4-13.3-6.5-15.3-15.2-1.1-4.6-.5-9.2-.6-13.8.1-2.8.1-5.7.1-8.6zm-298-84.6c7.6-.2 14.7 5.1 16.8 11.8 1.1 3.5.7 6.8.6 10.2-.1 1.7-2 2.3-3.2 2.3-4.2.3-8.4.8-12.3-1.5-7.9-4.6-10.9-11.7-9-20.5.4-1.7 1.7-1.9 3-2.1 1.5-.2 3.1-.2 4.1-.2z"/></svg>