<svg xmlns="http://www.w3.org/2000/svg" viewBox="0 0 512 512" width="55" height="53"><path d="M376.163 308.245c-5.768 0-10.449 4.681-10.449 10.449s4.681 10.449 10.449 10.449 10.449-4.681 10.449-10.449-4.681-10.449-10.449-10.449zm-146.285 0c-5.762 0-10.449-4.687-10.449-10.449s4.687-10.449 10.449-10.449c3.701 0 7.609 1.888 11.301 5.462 4.149 4.012 10.762 3.903 14.776-.242 4.012-4.147 3.904-10.762-.242-14.776-5.303-5.131-10.609-8.034-15.385-9.618V256c0-5.771-4.678-10.449-10.449-10.449S219.43 250.229 219.43 256v12.246c-12.162 4.313-20.898 15.927-20.898 29.55 0 17.285 14.062 31.347 31.347 31.347 5.762 0 10.449 4.687 10.449 10.449s-4.687 10.449-10.449 10.449c-4.464 0-9.283-2.808-13.569-7.905-3.714-4.417-10.304-4.988-14.722-1.274-4.418 3.714-4.987 10.305-1.274 14.722 5.586 6.645 12.154 11.274 19.115 13.609v12.195c0 5.771 4.678 10.449 10.449 10.449s10.449-4.678 10.449-10.449v-12.246c12.162-4.313 20.898-15.927 20.898-29.55-.001-17.285-14.063-31.347-31.347-31.347zm-82.327-53.511c-5.922-5.921-13.794-9.183-22.163-9.183-17.285 0-31.347 14.062-31.347 31.347 0 5.771 4.678 10.449 10.449 10.449s10.449-4.678 10.449-10.449c0-5.762 4.687-10.449 10.449-10.449 2.788 0 5.412 1.088 7.385 3.063a10.38 10.38 0 013.064 7.386c0 5.771 4.678 10.449 10.449 10.449s10.449-4.678 10.449-10.449c0-8.37-3.261-16.241-9.184-22.164zm234.5 23.357c-7.439-24.117-23.56-45.745-46.62-62.542-4.661-3.396-11.201-2.372-14.598 2.294-3.398 4.664-2.371 11.2 2.294 14.598 19.386 14.121 32.856 32.037 38.956 51.81 1.385 4.489 5.517 7.372 9.982 7.372 1.02 0 2.057-.15 3.083-.467 5.514-1.702 8.604-7.551 6.903-13.065z" data-original="#000000" class="active-path" data-old_color="#000000" fill="#FFF"/><path d="M512 172.408c0-5.771-4.679-10.449-10.449-10.449s-10.449 4.678-10.449 10.449a52.18 52.18 0 01-5.73 23.763c-5.68-8.045-15.041-13.314-25.617-13.314-17.285 0-31.347 14.062-31.347 31.347 0 17.285 14.062 31.347 31.347 31.347a31 31 0 009.645-1.553c-1.506 8.77-5.194 17.05-10.902 24.061-8.096 9.944-19.349 16.447-31.737 18.547-4.147-27.183-16.107-52.943-35.211-75.469-20.52-24.198-47.898-43.111-79.749-55.232 7.952-14.016 12.117-29.742 12.117-46.191 0-51.854-42.187-94.041-94.041-94.041s-94.041 42.187-94.041 94.041c0 16.446 4.164 32.171 12.109 46.19a213.2 213.2 0 00-19.714 8.673c-10.708-13.27-25.574-22.3-42.501-25.686-19.156-3.832-38.659.027-54.914 10.864-4.801 3.201-6.099 9.687-2.899 14.49l35.298 52.951.07.104c-9.34 12.027-16.734 24.992-22.07 38.7H10.449C4.678 256 0 260.678 0 266.449v83.592c0 5.771 4.678 10.449 10.449 10.449h30.768c10.347 26.575 28.451 50.485 52.824 69.735v55.652c0 5.771 4.678 10.449 10.449 10.449h62.694c5.771 0 10.449-4.678 10.449-10.449v-16.294c16.953 3.882 34.469 5.845 52.245 5.845 17.777 0 35.291-1.962 52.245-5.845v16.294c0 5.771 4.679 10.449 10.449 10.449h62.694c5.77 0 10.449-4.678 10.449-10.449v-55.653c39.916-31.543 62.694-75.725 62.694-121.979 0-.256-.007-.512-.008-.768 18.079-2.584 34.568-11.806 46.306-26.223 12.956-15.913 18.517-36.413 15.608-56.894C504.142 210.663 512 192 512 172.408zM229.878 36.571c40.331 0 73.143 32.812 73.143 73.143 0 16.558-5.402 32.181-15.62 45.177-13.983 17.773-34.949 27.966-57.523 27.966-22.567 0-43.534-10.19-57.528-27.958-10.216-13.006-15.615-28.63-15.615-45.185 0-40.331 32.812-73.143 73.143-73.143zM349.018 416.7a10.45 10.45 0 00-4.202 8.375v50.354H303.02v-19.372a10.45 10.45 0 00-13.402-10.023c-19.137 5.638-39.237 8.497-59.741 8.497s-40.604-2.859-59.741-8.497a10.451 10.451 0 00-13.402 10.022v19.372h-41.796v-50.354a10.45 10.45 0 00-4.199-8.374c-25.286-18.87-43.359-43.057-52.264-69.945a10.449 10.449 0 00-9.919-7.164H20.898v-62.694h27.658c4.506 0 8.503-2.887 9.919-7.164 5.363-16.198 14.017-31.344 25.719-45.015a10.448 10.448 0 00.766-12.575c-2.711-4.081-4.368-6.557-4.368-6.557L51.678 162.21c9.411-3.855 19.752-4.868 29.954-2.828 13.683 2.737 25.482 10.638 33.229 22.258.001.002 1.155 1.727 1.471 2.207a10.45 10.45 0 0013.831 3.357c9.618-5.394 19.888-9.989 30.594-13.724a94.134 94.134 0 0020.206 16.598c-.987.301-1.972.609-2.953.929-5.487 1.787-8.487 7.684-6.7 13.171 1.437 4.413 5.531 7.216 9.933 7.216 1.072 0 2.163-.167 3.238-.517 14.517-4.727 29.79-7.124 45.396-7.124 15.522 0 30.709 2.371 45.138 7.046 5.485 1.777 11.382-1.23 13.16-6.72 1.779-5.49-1.23-11.382-6.72-13.162a179.67 179.67 0 00-2.673-.837 94.063 94.063 0 0020.216-16.612c65.187 22.747 108.512 76.188 108.512 134.774 0 41.194-21.32 80.724-58.492 108.458zm120.794-199.657c-.085.31-.181.602-.283.863l-.021.054c-1.537 4.003-5.456 6.693-9.753 6.693-5.762 0-10.449-4.687-10.449-10.449s4.687-10.449 10.449-10.449 10.449 4.687 10.449 10.449c0 .958-.125 1.891-.392 2.839z" data-original="#000000" class="active-path" data-old_color="#000000" fill="#FFF"/><path d="M229.878 57.469c-28.808 0-52.245 23.437-52.245 52.245s23.437 52.245 52.245 52.245 52.245-23.437 52.245-52.245-23.438-52.245-52.245-52.245zm0 83.592c-17.285 0-31.347-14.062-31.347-31.347s14.062-31.347 31.347-31.347c17.285 0 31.347 14.062 31.347 31.347s-14.063 31.347-31.347 31.347z" data-original="#000000" class="active-path" data-old_color="#000000" fill="#FFF"/></svg>