<?xml version="1.0" standalone="no"?>
<!DOCTYPE svg PUBLIC "-//W3C//DTD SVG 1.1//EN" "http://www.w3.org/Graphics/SVG/1.1/DTD/svg11.dtd" >
<svg>
<metadata>
Created by FontForge 20090914 at Sat Dec  9 19:33:35 2017
 By www-data
Copyright (c) 2017 by Ahmed Qurany. All rights reserved.
</metadata>
<defs>
<font id="Qurany-LightItalic" horiz-adv-x="691" >
  <font-face 
    font-family="Qurany"
    font-weight="300"
    font-style="italic"
    font-stretch="normal"
    units-per-em="1000"
    panose-1="2 0 8 3 2 0 0 2 0 4"
    ascent="750"
    descent="-250"
    x-height="624"
    cap-height="624"
    bbox="-9 -116.002 932 708.998"
    underline-thickness="50"
    underline-position="-100"
    unicode-range="U+000D-U+007A"
  />
<missing-glyph horiz-adv-x="398" 
 />
    <glyph glyph-name=".notdef" horiz-adv-x="398" 
 />
    <glyph glyph-name="NULL" horiz-adv-x="0" 
 />
    <glyph glyph-name="NULL" horiz-adv-x="0" 
 />
    <glyph glyph-name="nonmarkingreturn" unicode="&#xd;" horiz-adv-x="398" 
 />
    <glyph glyph-name="space" unicode=" " horiz-adv-x="398" 
 />
    <glyph glyph-name="exclam" unicode="!" horiz-adv-x="262" 
d="M7 29h29l-8 -30h-29zM150 624h62l-140 -468h-33z" />
    <glyph glyph-name="quotedbl" unicode="&#x22;" horiz-adv-x="306" 
d="M72 555h-71l38 145h72zM217 555h-73l39 145h73z" />
    <glyph glyph-name="numbersign" unicode="#" horiz-adv-x="762" 
d="M642 215l-6 -63h-188l-66 -151h-64l66 151h-198l-67 -151h-64l67 151h-121l7 63h142l86 197h-165l7 62h188l66 152h63l-66 -152h199l67 152h64l-67 -152h120l-6 -62h-142l-87 -197h165zM414 215l86 197h-200l-87 -197h201z" />
    <glyph glyph-name="dollar" unicode="$" horiz-adv-x="569" 
d="M423 273c12.667 -14.667 20.668 -32.1699 24.001 -52.5029s2 -41.5 -4 -63.5c-12.667 -45.333 -40 -84 -82 -116c-34 -23.333 -70.667 -36.666 -110 -39.999h-43l-31 -117h-53l31 117h-37c-38.667 0 -69.667 13.333 -93 40c-18 21.333 -26.333 47.333 -25 78h55
c2.66699 -18.667 11 -34 25 -46s31.667 -18 53 -18h37l54 203h-37c-8 0 -15.167 0.666992 -21.5 2l-18.5 4c-22 7.33301 -39.667 19 -53 35c-12.667 14.667 -20.834 32 -24.501 52s-2.5 41 3.5 63s16.167 43.167 30.5 63.5s31.833 37.833 52.5 52.5c36.667 26 75 39 115 39
h37l37 140h53l-37 -140h44c36 0 65 -13 87 -39c8.66699 -10.667 15.334 -22.667 20.001 -36s6.66699 -27.666 6 -42.999h-56c-1.33301 6.66699 -2.83301 12.834 -4.5 18.501s-4.83398 11.167 -9.50098 16.5c-6.66699 10 -15.667 17.5 -27 22.5s-23.666 7.5 -36.999 7.5h-38
l-54 -204h38c17.333 0 29.666 -1.66699 36.999 -5h1c22.667 -6.66699 41 -18 55 -34zM293.001 515.997h-37.001c-28.667 0 -55.334 -10 -80.001 -30c-25.333 -20 -41.666 -44 -48.999 -72c-7.33301 -27.333 -3.66602 -51.333 11.001 -72c14.667 -20 36 -30 64 -30h37z
M261 54.9971c14 0 27.8311 2.66895 41.498 8.00195s26.334 12.666 38.001 21.999s21.834 20.166 30.501 32.499s15 25.5 19 39.5c3.33301 13.333 4.16602 26.333 2.49902 39s-6.16699 23.667 -13.5 33c-6.66699 9.33301 -15.667 16.5 -27 21.5s-23.666 7.5 -36.999 7.5h-38
l-54 -203h38z" />
    <glyph glyph-name="percent" unicode="%" horiz-adv-x="903" 
d="M729 626l-71 -84l-357 -419l-103 -122h-75l72 85l355 419l103 121h76zM328 582c-12 14.667 -26.832 25.667 -44.499 33s-37.167 11 -58.5 11c-44.667 0 -87.334 -14.667 -128.001 -44c-22.667 -16 -42 -35.333 -58 -58s-27.333 -46.334 -34 -71.001s-8 -48.167 -4 -70.5
s13 -41.833 27 -58.5c26 -29.333 61 -44 105 -44c21.333 0 42.833 3.83301 64.5 11.5s42.167 18.5 61.5 32.5c23.333 16.667 43 36.167 59 58.5s27.333 45.833 34 70.5s8 48.334 4 71.001s-13.333 42 -28 58zM150.001 346c-15.333 0 -28.667 2.83301 -40 8.5
s-20.666 13.334 -27.999 23.001s-12 21 -14 34s-1 26.833 3 41.5s10.5 28.667 19.5 42s19.833 24.833 32.5 34.5s26.167 17.334 40.5 23.001s29.166 8.5 44.499 8.5c14.667 0 27.834 -2.83301 39.501 -8.5s21 -13.334 28 -23.001s11.5 -21.167 13.5 -34.5s1 -27.333 -3 -42
s-10.5 -28.5 -19.5 -41.5s-19.667 -24.333 -32 -34s-25.833 -17.334 -40.5 -23.001s-29.334 -8.5 -44.001 -8.5zM823 304c-12 14 -26.833 24.832 -44.5 32.499s-37.167 11.5 -58.5 11.5s-43 -3.83301 -65 -11.5s-42.667 -18.5 -62 -32.5
c-23.333 -16.667 -42.833 -36.167 -58.5 -58.5s-27.167 -45.833 -34.5 -70.5c-6.66699 -25.333 -8 -49.166 -4 -71.499s13.333 -41.5 28 -57.5c24 -30 58.333 -45 103 -45c21.333 0 43 3.83301 65 11.5s42.667 18.834 62 33.501c22.667 16 42 35.167 58 57.5
s27.333 46.166 34 71.499c7.33301 24.667 8.83301 48.167 4.5 70.5s-13.5 41.833 -27.5 58.5zM644 66.999c-14.667 0 -27.833 2.83203 -39.5 8.49902s-21 13.334 -28 23.001s-11.667 21 -14 34s-1.5 27.167 2.5 42.5c4 14.667 10.667 28.5 20 41.5s20.166 24.333 32.499 34
s25.833 17.334 40.5 23.001s29.334 8.5 44.001 8.5c30 0 52.667 -10.333 68 -31s19 -46 11 -76c-4 -15.333 -10.667 -29.5 -20 -42.5s-20.166 -24.333 -32.499 -34s-25.833 -17.334 -40.5 -23.001s-29.334 -8.5 -44.001 -8.5z" />
    <glyph glyph-name="comma" unicode="," horiz-adv-x="140" 
d="M90 66l-18 -67l-44 -68h-31l45 70h-35l18 65h65z" />
    <glyph glyph-name="period" unicode="." horiz-adv-x="133" 
d="M18 65h65l-17 -65h-65l17 65v0z" />
    <glyph glyph-name="slash" unicode="/" horiz-adv-x="655" 
d="M605 624l-71 -84l-356 -419l-103 -122h-75l71 85l356 419l102 121h76v0z" />
    <glyph glyph-name="zero" unicode="0" horiz-adv-x="538" 
d="M412 606c32 -17.333 53.999 -42.999 65.999 -76.999s12.667 -71 2 -111l-57 -210c-10.667 -40 -31 -77 -61 -111s-65.667 -59.667 -107 -77c-32 -13.333 -63.333 -20 -94 -20s-58.667 6.66699 -84 20c-31.333 17.333 -53.166 43 -65.499 77s-13.5 71 -3.5 111l57 210
c5.33301 20 13.333 39.333 24 58s23.334 36.167 38.001 52.5s31.167 31.166 49.5 44.499s37.5 24.333 57.5 33c31.333 12.667 62.666 19 93.999 19c7.33301 0 14.833 -0.333008 22.5 -1s15.167 -2 22.5 -4c13.333 -3.33301 26.333 -8 39 -14zM414.999 418.001
c5.33301 20 6.49902 38.5 3.49902 55.5s-9.16699 32 -18.5 45s-21.666 23.167 -36.999 30.5s-32.666 11 -51.999 11c-39.333 0 -76.333 -13.667 -111 -41c-17.333 -13.333 -32 -28.333 -44 -45s-20.667 -34.667 -26 -54l-57 -212c-5.33301 -20 -6.5 -38.667 -3.5 -56
s9.16699 -32.5 18.5 -45.5s21.666 -23.167 36.999 -30.5s33 -11 53 -11c19.333 0 38.333 3.5 57 10.5s36.667 17.167 54 30.5s31.833 28.5 43.5 45.5s20.167 35.167 25.5 54.5z" />
    <glyph glyph-name="one" unicode="1" horiz-adv-x="280" 
d="M230 624l-167 -625h-64l166 625h65z" />
    <glyph glyph-name="two" unicode="2" horiz-adv-x="589" 
d="M428 65l-16.999 -64.998h-412l23 85l322 216l64 43l2 2c25.333 20 41.666 44.333 48.999 73l9 35c8 30 4.5 55.333 -10.5 76s-37.5 31 -67.5 31h-70c-29.333 0 -57 -10.333 -83 -31c-7.33301 -5.33301 -14 -11.333 -20 -18s-11.333 -13.667 -16 -21h-68
c9.33301 19.333 21.333 37.166 36 53.499s31 30.5 49 42.5s37.167 21.333 57.5 28s40.833 10 61.5 10h70c23.333 0 44.166 -4.5 62.499 -13.5s33.333 -21.333 45 -37s19.167 -33.834 22.5 -54.501s1.66602 -42.667 -5.00098 -66l-9 -35c-8 -32 -24 -61.333 -48 -88
c-5.33301 -6.66699 -11.166 -13 -17.499 -19s-13.166 -11.667 -20.499 -17v-1c-8 -6 -16.667 -11.333 -26 -16l-1 -1l-217 -146l-100 -66h335z" />
    <glyph glyph-name="three" unicode="3" horiz-adv-x="664" 
d="M477 453l-47.001 -33.9961l40 -27c0 -0.666992 0.666992 -1.66699 2 -3c0.666992 0 1.66699 -0.666992 3 -2c2 -1.33301 3 -2.33301 3 -3c0.666992 0 1.66699 -0.666992 3 -2l1 -1c0 -0.666992 0.333008 -1 1 -1l1 -1c1.33301 -1.33301 2.66602 -3.33301 3.99902 -6
l3.5 -3.5l3.5 -3.5v-1l2 -2v-1l3 -3l2 -4c0 -1.33301 0.666992 -2.66602 2 -3.99902c0 -0.666992 0.166992 -1.33398 0.5 -2.00098s0.5 -1.33398 0.5 -2.00098l2 -2c0 -1.33301 0.333008 -2 1 -2c0.666992 -1.33301 1 -2.66602 1 -3.99902v-1
c1.33301 -1.33301 2 -2.66602 2 -3.99902c0.666992 -0.666992 1 -1.33398 1 -2.00098s0.333008 -1.33398 1 -2.00098v-3c0.666992 -0.666992 1 -1.33398 1 -2.00098c0 -1.33301 0.166992 -2.16602 0.5 -2.49902s0.5 -0.833008 0.5 -1.5c0 -2.66699 0.333008 -4.66699 1 -6
c0.666992 -0.666992 0.666992 -1.33398 0 -2.00098c0 -0.666992 0.333008 -1 1 -1v-1v-9c1.33301 -9.33301 1.5 -18.833 0.5 -28.5s-2.83301 -19.5 -5.5 -29.5l-19 -70c-5.33301 -20.667 -13.666 -39.667 -24.999 -57c0 -0.666992 -0.333008 -1.33398 -1 -2.00098l-1 -2
c-1.33301 -1.33301 -2 -2.16602 -2 -2.49902s-0.333008 -0.833008 -1 -1.5c-0.666992 -1.33301 -1.16699 -2.16602 -1.5 -2.49902s-0.833008 -1.16602 -1.5 -2.49902l-1 -1c-0.666992 0 -1 -0.333008 -1 -1l-1 -2c-2 -2 -3 -3.33301 -3 -4h-1c0 -0.666992 -1 -2 -3 -4
c0 -0.666992 -1 -2 -3 -4l-3 -4c-2 -2 -3 -3.33301 -3 -4c-0.666992 -0.666992 -1.33398 -1.16699 -2.00098 -1.5s-1.33398 -1.16602 -2.00098 -2.49902c-0.666992 -0.666992 -1.33398 -1.16699 -2.00098 -1.5s-1.33398 -0.833008 -2.00098 -1.5
c0 -1.33301 -1 -2.33301 -3 -3l-1 -1l-2 -2l-1 -1l-3.5 -3.5l-3.5 -3.5c-1.33301 -1.33301 -2.83301 -2.5 -4.5 -3.5s-3.5 -2.16699 -5.5 -3.5c0 -0.666992 -0.166992 -1 -0.5 -1s-0.5 -0.333008 -0.5 -1c-0.666992 0 -1 -0.166992 -1 -0.5s-0.333008 -0.5 -1 -0.5l-2 -1
l-3 -3c-1.33301 -0.666992 -2.16602 -1.16699 -2.49902 -1.5s-1.16602 -0.833008 -2.49902 -1.5l-1 -1c-0.666992 -0.666992 -1.33398 -1.16699 -2.00098 -1.5s-1.33398 -0.833008 -2.00098 -1.5c-2.66699 -1.33301 -4.33398 -2.33301 -5.00098 -3
c-0.666992 0 -1 -0.166992 -1 -0.5s-0.333008 -0.5 -1 -0.5l-3 -2l-4 -2l-2 -1l-4 -2l-1 -1c-1.33301 0 -2.66602 -0.666992 -3.99902 -2c-0.666992 0 -1.16699 -0.166992 -1.5 -0.5s-0.833008 -0.5 -1.5 -0.5c-1.33301 -0.666992 -2.33301 -1.33398 -3 -2.00098
c-1.33301 0 -2.66602 -0.666992 -3.99902 -2c-1.33301 -0.666992 -2.5 -1 -3.5 -1s-2.16699 -0.333008 -3.5 -1c0 -0.666992 -0.666992 -1 -2 -1l-1 -1h-1c-2 -0.666992 -3.83301 -1.33398 -5.5 -2.00098s-3.5 -1.33398 -5.5 -2.00098
c-9.33301 -3.33301 -19.166 -5.83301 -29.499 -7.5s-20.5 -2.5 -30.5 -2.5h-140c-10 0 -19.5 0.833008 -28.5 2.5s-17.833 4.16699 -26.5 7.5l-8 4c-0.666992 0 -1 0.166992 -1 0.5s-0.333008 0.5 -1 0.5s-1.33398 0.333008 -2.00098 1l-4 2
c-1.33301 1.33301 -2.66602 2 -3.99902 2c-1.33301 0.666992 -1.66602 1.33398 -0.999023 2.00098c-0.666992 0 -1.16699 0.166992 -1.5 0.5s-0.833008 0.5 -1.5 0.5l-4 2v1l-4 2l1 1c-1.33301 0 -2.66602 0.666992 -3.99902 2
c-1.33301 0.666992 -1.66602 1.33398 -0.999023 2.00098l-2 1c-2 0.666992 -3 1.66699 -3 3c-1.33301 0.666992 -2.66602 1.66699 -3.99902 3v1c-1.33301 1.33301 -2 2.33301 -2 3l-3 3v1l-2 1l-2 2c-1.33301 2.66699 -3 5 -5 7c-0.666992 1.33301 -1.16699 2.5 -1.5 3.5
s-0.833008 2.16699 -1.5 3.5l-1 1c0 0.666992 -0.333008 1.33398 -1 2.00098l-1 1c0.666992 0.666992 0.333984 1.66699 -0.999023 3c0 1.33301 -0.333008 2.33301 -1 3l-2 4c-0.666992 1.33301 -0.833984 2.16602 -0.500977 2.49902s0.166016 0.833008 -0.500977 1.5l-1 4
c0 2 -0.333008 3.33301 -1 4c0 1.33301 -0.333008 2.66602 -1 3.99902c-0.666992 0.666992 -0.833984 1.33398 -0.500977 2.00098s0.166016 1.33398 -0.500977 2.00098v4h-1c0.666992 1.33301 0.333984 2.66602 -0.999023 3.99902
c0.666992 1.33301 0.833984 2.16602 0.500977 2.49902s-0.166016 1.16602 0.500977 2.49902c-0.666992 0 -1 0.666992 -1 2v2c-1.33301 6 -1.33301 12.667 0 20h66c2 -14 6.66699 -26.667 14 -38c15.333 -20 37 -30.667 65 -32h3h140h4c30 1.33301 57.333 12 82 32
c12.667 10 23.5 21.5 32.5 34.5s15.167 26.5 18.5 40.5l19 70c0 1.33301 0.333008 2.66602 1 3.99902c6 29.333 2 53.666 -12 72.999c-16.667 20.667 -39.334 31 -68.001 31h-102l4 16l255 193h-343l17 65h415l-23 -86z" />
    <glyph glyph-name="four" unicode="4" horiz-adv-x="623" 
d="M433 204h140l-18 -65h-140l-37 -140h-65l37 140h-349l23 89l437 396h84zM368 204l91 342l-376 -342h285z" />
    <glyph glyph-name="five" unicode="5" horiz-adv-x="653" 
d="M507 242l-17.999 -68.998c-6 -21.333 -14.333 -40.333 -25 -57c-6.66699 -10.667 -14 -20.834 -22 -30.501s-17 -18.5 -27 -26.5c-26 -22 -54 -38 -84 -48c-9.33301 -3.33301 -19 -5.83301 -29 -7.5s-20 -2.5 -30 -2.5h-139c-21.333 0 -40.833 3.83301 -58.5 11.5
s-32.167 18.5 -43.5 32.5c-10.667 12 -18.334 25.667 -23.001 41s-6.33398 31.666 -5.00098 48.999h65c2.66699 -20 11.167 -36.5 25.5 -49.5s33.166 -19.5 56.499 -19.5h141h1c14 0 28 2.83301 42 8.5s27.667 13.5 41 23.5c24.667 20.667 41.334 45.667 50.001 75l18 69
l1 3c7.33301 28.667 3.33301 53.334 -12 74.001c-15.333 20 -37.666 30 -66.999 30h-227l43 96l67 150l14 31h341l-28 -64h-277l-66 -148h150c10 0 19.5 -0.833008 28.5 -2.5s17.833 -4.16699 26.5 -7.5c19.333 -8 35.333 -19.333 48 -34
c16.667 -18.667 26 -42.334 28 -71.001c2 -18 0 -37 -6 -57z" />
    <glyph glyph-name="six" unicode="6" horiz-adv-x="626" 
d="M482 287c20 -33.333 24.333 -71.6689 13 -115.002c-6 -24 -16.333 -46.5 -31 -67.5s-32 -39.333 -52 -55s-41.667 -28 -65 -37s-47 -13.5 -71 -13.5h-140c-10 0 -19.5 0.833008 -28.5 2.5s-17.833 4.16699 -26.5 7.5l-4 2l-4 2h-1
c-0.666992 0.666992 -1.33398 1 -2.00098 1l-2 1c-2 2 -3 2.66699 -3 2l-1 1c-1.33301 0 -2 0.333008 -2 1l-2 1l-4 2c-0.666992 0.666992 -1.16699 1 -1.5 1s-0.833008 0.333008 -1.5 1v1h-1l-1 1c-0.666992 0.666992 -1.33398 1 -2.00098 1
c0 0.666992 -0.333008 1.33398 -1 2.00098c-0.666992 0 -1 0.166992 -1 0.5s-0.333008 0.5 -1 0.5c-1.33301 0.666992 -2 1.16699 -2 1.5s-0.333008 0.833008 -1 1.5l-1 1l-2 2l-1 1c-1.33301 1.33301 -2.33301 2 -3 2l1 1c-2 0.666992 -3 1.66699 -3 3
c-0.666992 0 -1.33398 0.333008 -2.00098 1c-1.33301 1.33301 -2 2.33301 -2 3l-3 3c-2.66699 4 -4.33398 6.33301 -5.00098 7l-3 6l-1 1v1h-1c0.666992 0.666992 0.666992 1.33398 0 2.00098l-2 4c0 1.33301 -0.333008 2.66602 -1 3.99902c-0.666992 0 -1 0.333008 -1 1
c0.666992 0 0.333984 0.666992 -0.999023 2l-1 2v2c-0.666992 0.666992 -1 1.66699 -1 3v1v3l-1 1v3l-1 1c0 2 -0.333008 3.33301 -1 4c0.666992 0.666992 0.666992 1.33398 0 2.00098l-1 2l1 1c-0.666992 0.666992 -1 1.66699 -1 3v1v1v3
c-0.666992 0.666992 -1 1.33398 -1 2.00098l1 1h-1c-0.666992 9.33301 -0.666992 18.833 0 28.5s2.33398 19.5 5.00098 29.5l74 280c3.33301 10 7 19.667 11 29s8.66699 18.666 14 27.999c14 22.667 30.667 42 50 58c26 22 54 38 84 48c20 6 40 9 60 9h140
c21.333 0 40.833 -3.66699 58.5 -11s32.834 -18 45.501 -32c20.667 -26 30 -56.667 28 -92h-67c-2.66699 20.667 -11.167 37.5 -25.5 50.5s-33.166 19.5 -56.499 19.5h-142h-1c-14 0 -28 -2.83301 -42 -8.5s-27.667 -13.5 -41 -23.5
c-25.333 -20.667 -42.333 -45.667 -51 -75l-29 -108h248c24.667 0 47 -5 67 -15s35.667 -24 47 -42zM293 63.9971c14.667 0 29.332 2.83301 43.999 8.5s28.167 13.5 40.5 23.5s23 21.5 32 34.5s15.5 26.833 19.5 41.5c8 30 4.5 55.333 -10.5 76s-37.5 31 -67.5 31h-248
l-29 -107c-3.33301 -14 -4.16602 -27.5 -2.49902 -40.5s6.16699 -24.5 13.5 -34.5c16 -21.333 37.667 -32.333 65 -33h1h142z" />
    <glyph glyph-name="seven" unicode="7" horiz-adv-x="602" 
d="M552 625l-24 -92l-452 -533h-76l475 560h-427l17 65h487v0z" />
    <glyph glyph-name="eight" unicode="8" horiz-adv-x="623" 
d="M479 287c9.33301 -16 15.001 -33.8252 17.001 -53.4922s0.333008 -40.167 -5 -61.5c-5.33301 -20 -13.5 -39 -24.5 -57s-24.333 -34.333 -40 -49s-32.834 -27.334 -51.501 -38.001s-38 -18.334 -58 -23.001c-7.33301 -2 -14.333 -3.33301 -21 -4l-20 -2h-1h-2h-140
c-23.333 0 -44.166 4.33301 -62.499 13s-33.166 20.667 -44.499 36s-18.833 33.166 -22.5 53.499s-2.83398 42.5 2.49902 66.5c0 0.666992 0.166992 1.16699 0.5 1.5s0.5 1.16602 0.5 2.49902v4c6 20.667 15.5 40.5 28.5 59.5s28.167 36.167 45.5 51.5l30 25l-17 25
c-20 31.333 -24.667 68.333 -14 111c0 0.666992 0.166992 1.16699 0.5 1.5s0.5 1.16602 0.5 2.49902c0.666992 1.33301 1 2.66602 1 3.99902c6.66699 23.333 17.5 45.166 32.5 65.499s32.333 38.166 52 53.499s41 27.333 64 36s46.167 13 69.5 13h140
c24 0 45.167 -4.5 63.5 -13.5s33.333 -21.333 45 -37s19.167 -33.834 22.5 -54.501s1.66602 -43 -5.00098 -67c-11.333 -43.333 -36 -81.666 -74 -114.999l-29 -25zM146.001 449.008c-7.33301 -28.667 -3.00098 -53.333 12.999 -74c14.667 -20.667 36.667 -31 66 -31h140
c14.667 0 29.334 2.83301 44.001 8.5s28.167 13.5 40.5 23.5s23 21.5 32 34.5s15.5 26.833 19.5 41.5c8 30 4.5 55.333 -10.5 76s-37.5 31 -67.5 31h-140c-14 0 -28.167 -2.5 -42.5 -7.5s-27.833 -12.5 -40.5 -22.5c-13.333 -10 -24.5 -21.333 -33.5 -34
s-15.167 -26 -18.5 -40l-1 -5zM290 64.0088c14.667 0 29.334 2.83301 44.001 8.5s28.167 13.5 40.5 23.5s23 21.5 32 34.5s15.5 26.833 19.5 41.5c8 30 4.5 55.333 -10.5 76s-37.5 31 -67.5 31h-140c-14 0 -28.167 -2.5 -42.5 -7.5s-27.833 -12.5 -40.5 -22.5
c-13.333 -10 -24.5 -21.333 -33.5 -34s-15.167 -26 -18.5 -40l-1 -5l-1 -1c-6.66699 -28 -2.66699 -52.667 12 -74c15.333 -20.667 37.666 -31 66.999 -31h140z" />
    <glyph glyph-name="nine" unicode="9" horiz-adv-x="620" 
d="M569 509c2 -19.333 0.331055 -38.3291 -5.00195 -56.9961l-75 -280c-2.66699 -10 -6.16699 -19.667 -10.5 -29s-9.16602 -18.666 -14.499 -27.999v-1c-14.667 -22 -31.334 -41 -50.001 -57c-26 -22 -54.333 -38 -85 -48c-9.33301 -3.33301 -19 -5.83301 -29 -7.5
s-20 -2.5 -30 -2.5h-140c-43.333 0 -77.666 14.667 -102.999 44c-10.667 12.667 -18.334 26.667 -23.001 42s-6.33398 31.666 -5.00098 48.999h66c2 -20 10.333 -36.667 25 -50s33.667 -20 57 -20h142h1c29.333 1.33301 57 12.333 83 33c12.667 10 23.5 21.5 32.5 34.5
s15.167 26.5 18.5 40.5l29 107h-248c-24.667 0 -47 5 -67 15s-35.667 24.333 -47 43c-20 33.333 -24.333 71.666 -13 114.999c6.66699 24 17.334 46.333 32.001 67s31.834 38.834 51.501 54.501s41.167 28 64.5 37s47 13.5 71 13.5h140c19.333 0 37.666 -3 54.999 -9
c1.33301 -0.666992 2.83301 -1.33398 4.5 -2.00098s3.16699 -1.33398 4.5 -2.00098l3 -2l2 -1c0.666992 0 1.16699 -0.166992 1.5 -0.5s0.833008 -0.5 1.5 -0.5v-1c0.666992 0 1.33398 -0.333008 2.00098 -1l2 -1c2 0 3 -0.666992 3 -2h1c1.33301 -1.33301 2.33301 -2 3 -2
l1 -1h1c-0.666992 -0.666992 -0.666992 -1 0 -1c0.666992 -0.666992 1.33398 -1 2.00098 -1c0.666992 -0.666992 1 -1.33398 1 -2.00098c0.666992 0 1 -0.166992 1 -0.5s0.333008 -0.5 1 -0.5c2 -1.33301 3 -2.33301 3 -3c1.33301 -0.666992 2.66602 -1.66699 3.99902 -3
s2.33301 -2.66602 3 -3.99902h1c0 -0.666992 0.666992 -1.66699 2 -3c-0.666992 0 -0.333984 -0.666992 0.999023 -2c0.666992 0 1.66699 -0.666992 3 -2c0 -0.666992 0.666992 -1.66699 2 -3c1.33301 -2.66699 3 -5 5 -7l3 -6v-1l1 -1l1 -1l-1 -1l2 -2l1 -2
c0 -0.666992 0.166992 -1.16699 0.5 -1.5s0.5 -1.16602 0.5 -2.49902c0.666992 0 1 -0.333008 1 -1c0.666992 -0.666992 1 -1.33398 1 -2.00098l1 -2v-2c0.666992 -0.666992 1 -1.33398 1 -2.00098s0.333008 -1.33398 1 -2.00098v-3l1 -1v-3l1 -1
c0.666992 -1.33301 0.833984 -2.16602 0.500977 -2.49902s-0.166016 -0.833008 0.500977 -1.5v-3v-1l1 -1v-3l1 -1l-1 -1c0.666992 -1.33301 0.666992 -2.33301 0 -3c0.666992 -0.666992 1 -1.33398 1 -2.00098v-1v-1zM498.998 452.004
c8 29.333 4.33398 54.334 -10.999 75.001c-14.667 21.333 -36.334 32 -65.001 32h-1h-142c-14.667 0 -29.334 -2.83301 -44.001 -8.5s-28.167 -13.334 -40.5 -23.001s-23 -21 -32 -34s-15.5 -26.833 -19.5 -41.5s-5 -28.5 -3 -41.5s6.5 -24.5 13.5 -34.5
s16.333 -17.833 28 -23.5s24.834 -8.5 39.501 -8.5h248z" />
    <glyph glyph-name="colon" unicode=":" horiz-adv-x="206" 
d="M91 344h65l-18 -65h-65zM16 64h65l-18 -65h-64z" />
    <glyph glyph-name="semicolon" unicode=";" horiz-adv-x="207" 
d="M17 65h65l-18 -67l-43 -68h-30l44 70h-35zM92 345h65l-17 -65h-65z" />
    <glyph glyph-name="question" unicode="?" horiz-adv-x="523" 
d="M466 453c-6.66699 -24.667 -17.834 -48.1699 -33.501 -70.5029s-34.834 -41.5 -57.501 -57.5c-23.333 -17.333 -48.666 -29.666 -75.999 -36.999l-3 -1c-16 -4 -31.667 -6 -47 -6h-38l-18 -70h-64l8 33c8.66699 28.667 25 52.667 49 72c26 20 53 30 81 30
c14.667 0 29.334 2.83301 44.001 8.5s28 13.334 40 23.001s22.5 21 31.5 34s15.5 26.833 19.5 41.5c8 30 4.5 55.333 -10.5 76s-37.5 31 -67.5 31h-140c-23.333 0 -45.666 -6.5 -66.999 -19.5s-38.666 -29.833 -51.999 -50.5h-67c8.66699 17.333 19.5 33.833 32.5 49.5
s28.167 29.5 45.5 41.5c19.333 14 39.666 24.667 60.999 32s42.666 11 63.999 11h44h96h4c42.667 -1.33301 75.667 -15.666 99 -42.999c13.333 -16.667 22 -36.167 26 -58.5s2.66699 -45.5 -4 -69.5zM153 63.9971l-17 -65h-64l17 65h64z" />
    <glyph glyph-name="A" unicode="A" horiz-adv-x="636" 
d="M505 624l81 -625h-58l-18 141h-358l-94 -141h-58l415 625h90zM195 206h306l-50 384z" />
    <glyph glyph-name="B" unicode="B" horiz-adv-x="662" 
d="M518 287c9.33301 -16 15.002 -33.833 17.002 -53.5s0.333008 -40.167 -5 -61.5c-6 -24 -16.333 -46.5 -31 -67.5s-31.834 -39.333 -51.501 -55s-41.167 -28 -64.5 -37s-47 -13.5 -71 -13.5h-312l166 625h313c24 0 45.167 -4.5 63.5 -13.5s33.333 -21.333 45 -37
s19.167 -33.834 22.5 -54.501s1.66602 -43 -5.00098 -67c-11.333 -43.333 -36 -81.666 -74 -114.999l-29 -25zM156.002 344h247.999c14.667 0 29.334 2.83301 44.001 8.5s28.167 13.5 40.5 23.5s23 21.5 32 34.5s15.5 26.833 19.5 41.5c8 30 4.5 55.333 -10.5 76
s-37.5 31 -67.5 31h-248zM329.001 64c14.667 0 29.333 2.83301 44 8.5s28.167 13.5 40.5 23.5s23 21.5 32 34.5s15.5 26.833 19.5 41.5c8 30 4.5 55.333 -10.5 76s-37.5 31 -67.5 31h-248l-58 -215h248z" />
    <glyph glyph-name="C" unicode="C" horiz-adv-x="694" 
d="M481 136l66.998 -0.00390625c-8 -17.333 -18.667 -33.666 -32 -48.999s-28.333 -29.333 -45 -42c-20 -14 -40.833 -24.833 -62.5 -32.5s-43.167 -11.5 -64.5 -11.5h-210c-10 0 -19.5 0.833008 -28.5 2.5s-18.167 4.16699 -27.5 7.5
c-1.33301 0.666992 -2.5 1.33398 -3.5 2.00098s-2.16699 1.33398 -3.5 2.00098c-0.666992 0 -1 0.166992 -1 0.5s-0.333008 0.5 -1 0.5s-1.33398 0.333008 -2.00098 1l-4 2l-4 2h-1l-3 3c-1.33301 0.666992 -2.66602 1.66699 -3.99902 3s-2.66602 2 -3.99902 2l-3 3
c-1.33301 0.666992 -2 1.16699 -2 1.5s-0.333008 0.833008 -1 1.5c-1.33301 0.666992 -2.66602 1.66699 -3.99902 3s-2 2.66602 -2 3.99902h-1c-1.33301 1.33301 -2 2.33301 -2 3c-0.666992 0.666992 -1.33398 1.16699 -2.00098 1.5s-1.33398 0.833008 -2.00098 1.5v1l-1 1
l-2 2c-1.33301 2.66699 -3 5 -5 7c-0.666992 1.33301 -1.16699 2.5 -1.5 3.5s-0.833008 2.16699 -1.5 3.5c-0.666992 0 -1 0.166992 -1 0.5s-0.333008 0.5 -1 0.5c0.666992 0.666992 0.666992 1.33398 0 2.00098s-1 1.33398 -1 2.00098s-0.333008 1.33398 -1 2.00098
c0 1.33301 -0.333008 2.33301 -1 3l-2 4c0 0.666992 -0.166992 1.16699 -0.5 1.5s-0.5 1.16602 -0.5 2.49902c-0.666992 0.666992 -1 2 -1 4s-0.333008 3.33301 -1 4c0 1.33301 -0.333008 2.66602 -1 3.99902c-0.666992 0.666992 -0.833984 1.33398 -0.500977 2.00098
s0.166016 1.33398 -0.500977 2.00098v3v2c-0.666992 0.666992 -1 1.16699 -1 1.5s-0.333008 0.833008 -1 1.5c0.666992 0.666992 0.666992 1.66699 0 3l1 2c-0.666992 0 -1 0.666992 -1 2v1c-0.666992 9.33301 -0.666992 18.833 0 28.5s2.33398 19.5 5.00098 29.5l74 280
c3.33301 10 7 19.667 11 29s8.66699 18.666 14 27.999c14 22.667 30.667 42 50 58c26 22 54 38 84 48c20 6 40 9 60 9h210c21.333 0 40.833 -3.66699 58.5 -11s32.834 -18 45.501 -32c20.667 -26 30 -56.667 28 -92h-67c-2.66699 20.667 -11.167 37.5 -25.5 50.5
s-33.166 19.5 -56.499 19.5h-212h-1c-14 0 -28 -2.83301 -42 -8.5s-27.667 -13.5 -41 -23.5c-25.333 -20.667 -42.333 -45.667 -51 -75l-75 -280c-3.33301 -14 -4.16602 -27.5 -2.49902 -40.5s6.16699 -24.5 13.5 -34.5c16 -21.333 37.667 -32.333 65 -33h1h212
c23.333 0 45.833 6.66699 67.5 20s39.167 30 52.5 50z" />
    <glyph glyph-name="D" unicode="D" horiz-adv-x="731" 
d="M680 509c2 -18 0.00488281 -36.999 -5.99512 -56.999l-75 -280c-4.66699 -19.333 -12.667 -38.666 -24 -57.999l-2 -1c0 -0.666992 -0.166992 -1.16699 -0.5 -1.5s-0.5 -0.833008 -0.5 -1.5c-0.666992 -0.666992 -1.16699 -1.33398 -1.5 -2.00098
s-0.833008 -1.33398 -1.5 -2.00098c-1.33301 -1.33301 -2.33301 -2.66602 -3 -3.99902l-1 -1c0 -0.666992 -0.666992 -1.66699 -2 -3c-2 -2 -3 -3.33301 -3 -4v-1l-3 -3c-0.666992 -1.33301 -1.33398 -2.16602 -2.00098 -2.49902s-1 -0.833008 -1 -1.5l-4 -4
c-0.666992 -0.666992 -1.16699 -1.33398 -1.5 -2.00098s-0.833008 -1.33398 -1.5 -2.00098s-1.33398 -1.16699 -2.00098 -1.5s-1.33398 -1.16602 -2.00098 -2.49902l-3 -3l-3 -3l-1 -1c-1.33301 -1.33301 -2.33301 -2 -3 -2c0 -0.666992 -0.333008 -1 -1 -1l-3.5 -3.5
l-3.5 -3.5c-2 -2 -5 -4.33301 -9 -7l-2 -2l-2 -1l-2 -2c-0.666992 -0.666992 -1.16699 -1 -1.5 -1s-0.833008 -0.333008 -1.5 -1c-1.33301 -0.666992 -2.66602 -1.66699 -3.99902 -3l-2 -1c-1.33301 -1.33301 -2.66602 -2.33301 -3.99902 -3
s-2.16602 -1.16699 -2.49902 -1.5s-1.16602 -0.833008 -2.49902 -1.5l-2 -1c-0.666992 -0.666992 -1.16699 -1 -1.5 -1s-0.833008 -0.333008 -1.5 -1c-1.33301 -1.33301 -2.66602 -2 -3.99902 -2l-1 -1c-0.666992 -0.666992 -1.33398 -1 -2.00098 -1
s-1.33398 -0.333008 -2.00098 -1l-2 -1l-4 -2c-0.666992 -0.666992 -1.66699 -1 -3 -1c-0.666992 -0.666992 -1.16699 -1 -1.5 -1s-0.833008 -0.333008 -1.5 -1s-1.33398 -1 -2.00098 -1s-1.33398 -0.333008 -2.00098 -1c-1.33301 -0.666992 -2.33301 -1 -3 -1
s-1.66699 -0.333008 -3 -1c-0.666992 -0.666992 -1.33398 -1 -2.00098 -1c-0.666992 -0.666992 -1.33398 -1 -2.00098 -1c-2 -0.666992 -3.83301 -1.33398 -5.5 -2.00098s-3.5 -1.33398 -5.5 -2.00098h-1c-9.33301 -3.33301 -19 -5.83301 -29 -7.5s-20 -2.5 -30 -2.5h-382
l166 625h383c19.333 0 37.666 -3 54.999 -9c25.333 -10 45 -26 59 -48c10 -17.333 16 -36.666 18 -57.999zM609.005 452.001c4 14 5.16797 27.5 3.50098 40.5s-6.16699 24.5 -13.5 34.5c-14.667 21.333 -36.334 32 -65.001 32h-321l-133 -495h318h3
c29.333 1.33301 57 12.333 83 33s42.667 45.667 50 75z" />
    <glyph glyph-name="E" unicode="E" horiz-adv-x="701" 
d="M214 559l-58 -215h350l-17 -65h-350l-58 -215h420l-17 -65h-382h-38h-64l17 65v0l47 178l10 37l17 65v0l48 178l10 37l17 65h485l-17 -65h-420v0z" />
    <glyph glyph-name="F" unicode="F" horiz-adv-x="630" 
d="M213 560l-58 -215h278l-17 -65h-278l-75 -280h-64l74 280h-2l17 65h2l48 178l10 37l17 65h415l-17 -65h-350v0z" />
    <glyph glyph-name="G" unicode="G" 
d="M586 275l-27.0029 -102.004c-6.66699 -24.667 -18 -48.167 -34 -70.5s-35 -41.833 -57 -58.5c-20 -14 -40.833 -24.833 -62.5 -32.5s-43.167 -11.5 -64.5 -11.5h-210c-10 0 -19.5 0.833008 -28.5 2.5s-18.167 4.16699 -27.5 7.5
c-1.33301 0.666992 -2.5 1.33398 -3.5 2.00098s-2.16699 1.33398 -3.5 2.00098c-0.666992 0 -1 0.166992 -1 0.5s-0.333008 0.5 -1 0.5s-1.33398 0.333008 -2.00098 1l-4 2l-4 2h-1l-3 3c-1.33301 0.666992 -2.66602 1.66699 -3.99902 3s-2.66602 2 -3.99902 2l-3 3
c-1.33301 0.666992 -2 1.16699 -2 1.5s-0.333008 0.833008 -1 1.5c-1.33301 0.666992 -2.66602 1.66699 -3.99902 3s-2 2.66602 -2 3.99902h-1c-1.33301 1.33301 -2 2.33301 -2 3c-0.666992 0.666992 -1.33398 1.16699 -2.00098 1.5s-1.33398 0.833008 -2.00098 1.5v1l-1 1
l-2 2c-1.33301 2.66699 -3 5 -5 7c-0.666992 1.33301 -1.16699 2.5 -1.5 3.5s-0.833008 2.16699 -1.5 3.5c-0.666992 0 -1 0.166992 -1 0.5s-0.333008 0.5 -1 0.5c0.666992 0.666992 0.666992 1.33398 0 2.00098s-1 1.33398 -1 2.00098s-0.333008 1.33398 -1 2.00098
c0 1.33301 -0.333008 2.33301 -1 3l-2 4c-0.666992 0.666992 -1 2 -1 4c-0.666992 0.666992 -1 2 -1 4s-0.333008 3.33301 -1 4c0 1.33301 -0.333008 2.66602 -1 3.99902c-0.666992 0.666992 -0.833984 1.33398 -0.500977 2.00098s0.166016 1.33398 -0.500977 2.00098v3v2
c-0.666992 0.666992 -1 1.16699 -1 1.5s-0.333008 0.833008 -1 1.5c0.666992 0.666992 0.666992 1.66699 0 3l1 2c-0.666992 0 -1 0.666992 -1 2v1c-0.666992 9.33301 -0.666992 18.833 0 28.5s2.33398 19.5 5.00098 29.5l74 280c3.33301 10 7 19.667 11 29
s8.66699 18.666 14 27.999c14 22.667 30.667 42 50 58c26 22 54 38 84 48c20 6 40 9 60 9h210c21.333 0 40.833 -3.66699 58.5 -11s32.834 -18 45.501 -32c20.667 -26 30 -56.667 28 -92h-67c-2.66699 20.667 -11.167 37.5 -25.5 50.5s-33.166 19.5 -56.499 19.5h-212h-1
c-14 0 -28 -2.83301 -42 -8.5s-27.667 -13.5 -41 -23.5c-25.333 -20.667 -42.333 -45.667 -51 -75l-75 -280c-3.33301 -14 -4.16602 -27.5 -2.49902 -40.5s6.16699 -24.5 13.5 -34.5c16 -21.333 37.667 -32.333 65 -33h1h212c14.667 0 29.334 2.83301 44.001 8.5
s28.167 13.5 40.5 23.5s23 21.5 32 34.5s15.5 26.833 19.5 41.5l11 37h-71l17 65h135z" />
    <glyph glyph-name="H" unicode="H" horiz-adv-x="771" 
d="M721 624l-167 -625h-65l75 280h-425l-75 -280h-64l64 243l10 37l17 65v0l75 280h65l-75 -280h425l75 280h65v0z" />
    <glyph glyph-name="I" unicode="I" horiz-adv-x="281" 
d="M231 624l-167 -625h-64l166 625h65v0z" />
    <glyph glyph-name="J" unicode="J" horiz-adv-x="585" 
d="M535 625l-112 -417c-10.667 -40 -31 -77 -61 -111s-65.667 -59.667 -107 -77c-32 -13.333 -63.333 -20 -94 -20s-58.667 6.66699 -84 20c-31.333 17.333 -53.166 43 -65.499 77s-13.5 71 -3.5 111l10 34h65l-10 -34c-5.33301 -20 -6.5 -38.667 -3.5 -56
s9.16699 -32.5 18.5 -45.5s21.666 -23.167 36.999 -30.5s33 -11 53 -11c19.333 0 38.333 3.5 57 10.5s36.667 17.167 54 30.5s31.833 28.5 43.5 45.5s20.167 35.167 25.5 54.5l112 419h65z" />
    <glyph glyph-name="K" unicode="K" horiz-adv-x="668" 
d="M521 -1h-80l-132 305l-224 -231l-20 -75h-64l166 625h65l-117 -437l149 153l118 122l156 162h80l-254 -262l157 -362v0z" />
    <glyph glyph-name="L" unicode="L" horiz-adv-x="482" 
d="M432 64l-17 -65h-414l166 625h65l-150 -560h350v0z" />
    <glyph glyph-name="M" unicode="M" horiz-adv-x="982" 
d="M932 622l-167 -623h-64l109 407l32 119l-95 -98l-357 -395l-143 391l-46 85l-136 -509h-64l166 623h83l172 -470l424 470h86v0z" />
    <glyph glyph-name="N" unicode="N" horiz-adv-x="772" 
d="M722 623l-167 -624h-82l-260 542l-145 -542h-64l166 624h85l258 -538l144 538h65v0z" />
    <glyph glyph-name="O" unicode="O" 
d="M640 511c2 -18 0.00488281 -37.0059 -5.99512 -57.0059l-75 -280c-4.66699 -19.333 -12.667 -38.666 -24 -57.999l-2 -1c0 -0.666992 -0.166992 -1.16699 -0.5 -1.5s-0.5 -0.833008 -0.5 -1.5c-0.666992 -0.666992 -1.16699 -1.33398 -1.5 -2.00098
s-0.833008 -1.33398 -1.5 -2.00098c-1.33301 -1.33301 -2.33301 -2.66602 -3 -3.99902l-1 -1c0 -0.666992 -0.666992 -1.66699 -2 -3c-2 -2 -3 -3.33301 -3 -4v-1l-3 -3c-0.666992 -1.33301 -1.33398 -2.16602 -2.00098 -2.49902s-1 -0.833008 -1 -1.5l-4 -4
c-0.666992 -0.666992 -1.16699 -1.33398 -1.5 -2.00098s-0.833008 -1.33398 -1.5 -2.00098s-1.33398 -1.16699 -2.00098 -1.5s-1.33398 -1.16602 -2.00098 -2.49902l-3 -3l-3 -3l-1 -1c-1.33301 -1.33301 -2.33301 -2 -3 -2c0 -0.666992 -0.333008 -1 -1 -1l-3.5 -3.5
l-3.5 -3.5c-2 -2 -5 -4.33301 -9 -7l-2 -2l-2 -1l-2 -2c-0.666992 -0.666992 -1.16699 -1 -1.5 -1s-0.833008 -0.333008 -1.5 -1c-1.33301 -0.666992 -2.66602 -1.66699 -3.99902 -3l-2 -1c-1.33301 -1.33301 -2.66602 -2.33301 -3.99902 -3
s-2.16602 -1.16699 -2.49902 -1.5s-1.16602 -0.833008 -2.49902 -1.5l-2 -1c-0.666992 -0.666992 -1.16699 -1 -1.5 -1s-0.833008 -0.333008 -1.5 -1c-1.33301 -1.33301 -2.66602 -2 -3.99902 -2l-1 -1c-0.666992 -0.666992 -1.33398 -1 -2.00098 -1
s-1.33398 -0.333008 -2.00098 -1l-2 -1l-4 -2l-4 -2l-2 -1c-0.666992 -0.666992 -1.33398 -1 -2.00098 -1s-1.33398 -0.333008 -2.00098 -1c-1.33301 -0.666992 -2.33301 -1 -3 -1s-1.66699 -0.333008 -3 -1c-0.666992 -0.666992 -1.33398 -1 -2.00098 -1
c-0.666992 -0.666992 -1.33398 -1 -2.00098 -1c-2 -0.666992 -3.83301 -1.33398 -5.5 -2.00098s-3.5 -1.33398 -5.5 -2.00098h-1c-9.33301 -3.33301 -19 -5.83301 -29 -7.5s-20 -2.5 -30 -2.5h-210c-10 0 -19.5 0.833008 -28.5 2.5s-18.167 4.16699 -27.5 7.5
c-1.33301 0.666992 -2.5 1.33398 -3.5 2.00098s-2.16699 1.33398 -3.5 2.00098c-0.666992 0 -1.33398 0.333008 -2.00098 1l-2 1l-4 2l-4 2l-2 2l-2 1l-4 2v1c-0.666992 0.666992 -1.33398 1 -2.00098 1s-1.33398 0.333008 -2.00098 1l1 1
c-1.33301 0 -2.66602 0.666992 -3.99902 2c-1.33301 0.666992 -1.66602 1.33398 -0.999023 2.00098c-0.666992 0 -1.16699 0.166992 -1.5 0.5s-0.833008 0.5 -1.5 0.5c-1.33301 1.33301 -2 2.33301 -2 3c-1.33301 0.666992 -2.66602 1.66699 -3.99902 3v1
c-1.33301 1.33301 -2 2.33301 -2 3c-0.666992 0.666992 -1.16699 1 -1.5 1s-0.833008 0.333008 -1.5 1v2c-0.666992 0 -1.33398 0.333008 -2.00098 1l-2 2c-1.33301 2.66699 -3 5 -5 7c-0.666992 1.33301 -1.16699 2.5 -1.5 3.5s-0.833008 2.16699 -1.5 3.5
c-0.666992 0 -1 0.333008 -1 1c0.666992 0 0.333984 0.666992 -0.999023 2l-1 1c0.666992 0.666992 0.333984 1.66699 -0.999023 3c0 1.33301 -0.333008 2.33301 -1 3l-2 4c-0.666992 0.666992 -0.833984 1.33398 -0.500977 2.00098s0.166016 1.33398 -0.500977 2.00098
l-1 4c0 1.33301 -0.333008 2.66602 -1 3.99902c0 1.33301 -0.333008 2.33301 -1 3v1c-0.666992 0.666992 -0.833984 1.33398 -0.500977 2.00098s0.166016 1.33398 -0.500977 2.00098v3l-1 1c0 2 -0.333008 3.33301 -1 4
c0.666992 0.666992 0.833984 1.33398 0.500977 2.00098s-0.166016 1.33398 0.500977 2.00098c-0.666992 0.666992 -1 1.66699 -1 3c0.666992 0.666992 0.666992 1 -0 1c-0.666992 9.33301 -0.666992 18.833 0 28.5s2.33398 19.5 5.00098 29.5l74 280
c3.33301 10 7 19.667 11 29s8.66699 18.666 14 27.999c14 22.667 30.667 42 50 58c26 22 54 38 84 48c20 6 40 9 60 9h210c19.333 0 37.666 -3 54.999 -9c25.333 -10 45 -26 59 -48c10 -17.333 16 -36.666 18 -57.999zM569.005 453.994c4 14 5.16699 27.5 3.5 40.5
s-6.16699 24.5 -13.5 34.5c-14.667 21.333 -36.334 32 -65.001 32h-1h-214h-1c-14 0 -28 -2.83301 -42 -8.5s-27.667 -13.5 -41 -23.5c-25.333 -20.667 -42.333 -45.667 -51 -75l-75 -280c-3.33301 -14 -4.16602 -27.5 -2.49902 -40.5s6.16699 -24.5 13.5 -34.5
c16 -21.333 37.333 -32.333 64 -33h4h210h3c29.333 1.33301 57 12.333 83 33s42.667 45.667 50 75z" />
    <glyph glyph-name="P" unicode="P" horiz-adv-x="666" 
d="M483 624c24 0 45.168 -4.5 63.501 -13.5s33.333 -21.333 45 -37s19.167 -33.834 22.5 -54.501s1.66602 -43 -5.00098 -67c-11.333 -43.333 -36 -81.666 -74 -114.999c-21.333 -18.667 -44.5 -33 -69.5 -43s-49.833 -15 -74.5 -15h-248l-75 -280h-64l166 625h313z
M408.001 344c14.667 0 29.333 2.83301 44 8.5s28.167 13.5 40.5 23.5s23 21.5 32 34.5s15.5 26.833 19.5 41.5c8 30 4.5 55.333 -10.5 76s-37.5 31 -67.5 31h-248l-58 -215h248z" />
    <glyph glyph-name="Q" unicode="Q" horiz-adv-x="631" 
d="M580 460c2 -15.333 0.336914 -32.334 -4.99609 -51.001l-68 -255c-2.66699 -8.66699 -5.83398 -17.167 -9.50098 -25.5s-8.16699 -16.833 -13.5 -25.5c-11.333 -19.333 -25.666 -36.333 -42.999 -51c-21.333 -18 -43.666 -31 -66.999 -39l37 -76h-33l-33 67
c-11.333 -2 -22 -3 -32 -3h-191c-18 0 -34.333 3 -49 9c-22.667 8 -39.667 22 -51 42c-10 14.667 -16 31.667 -18 51c-1.33301 18.667 0.333984 35.667 5.00098 51l68 255c4.66699 17.333 12.334 34.333 23.001 51c12 18.667 27 35.667 45 51
c11.333 10 23.166 18.5 35.499 25.5s25.166 12.833 38.499 17.5c9.33301 3.33301 18.166 5.5 26.499 6.5s17.166 1.5 26.499 1.5h191c8.66699 0 17.167 -0.5 25.5 -1.5s16.166 -3.16699 23.499 -6.5c23.333 -9.33301 40.666 -23.666 51.999 -42.999
c9.33301 -14.667 14.666 -31.667 15.999 -51zM407.004 83.999c24.667 19.333 40.667 42.665 48 69.998l68 255c7.33301 28 4 51.667 -10 71c-12.667 18.667 -33.334 28.667 -62.001 30h-195h-1c-13.333 -0.666992 -26.666 -3.5 -39.999 -8.5s-25.666 -12.167 -36.999 -21.5
c-24.667 -19.333 -40.667 -43 -48 -71l-68 -255c-7.33301 -27.333 -4 -50.666 10 -69.999c13.333 -19.333 33.666 -29.666 60.999 -30.999h188l-31 64h33l30 -60c18.667 4 36.667 13 54 27z" />
    <glyph glyph-name="R" unicode="R" horiz-adv-x="666" 
d="M522 -1l-78.999 0.000976562l-123 280h-177l-75 -280h-64l166 625h313c24 0 45.167 -4.5 63.5 -13.5s33.333 -21.333 45 -37s19.167 -33.834 22.5 -54.501s1.66602 -43 -5.00098 -67c-11.333 -43.333 -36 -81.666 -74 -114.999c-12 -10.667 -25 -19.834 -39 -27.501
s-28.333 -14.167 -43 -19.5l-51 -17zM408.001 344.001c14.667 0 29.333 2.83301 44 8.5s28.167 13.5 40.5 23.5s23 21.5 32 34.5s15.5 26.833 19.5 41.5c8 30 4.5 55.333 -10.5 76s-37.5 31 -67.5 31h-248l-58 -215h248z" />
    <glyph glyph-name="S" unicode="S" horiz-adv-x="624" 
d="M492 172c-6.66699 -24.667 -17.8301 -48.168 -33.4971 -70.501s-34.834 -41.833 -57.501 -58.5c-38.667 -27.333 -79.334 -41.666 -122.001 -42.999l-5 -1h-97v2l-38 -1h-3l-2 -1c-43.333 0 -77.666 14.667 -102.999 44c-10.667 12.667 -18.334 26.667 -23.001 42
s-6.33398 31.666 -5.00098 48.999h66c2 -20 10.333 -36.667 25 -50s33.667 -20 57 -20h140c14.667 0 29.334 2.83301 44.001 8.5s28.167 13.5 40.5 23.5s23.166 21.5 32.499 34.5s16 26.833 20 41.5c8 30 4.33301 55.333 -11 76s-38 31 -68 31h-140
c-16.667 0 -31.334 2 -44.001 6c-12 3.33301 -23 8.33301 -33 15s-18.667 14.334 -26 23.001c-14.667 16.667 -24 36.167 -28 58.5s-2.66699 45.833 4 70.5s18 48.167 34 70.5s35.667 41.833 59 58.5c40 28.667 82 43 126 43h2h3l38 -1v1h97h5
c42.667 -1.33301 75.667 -15.666 99 -42.999c20.667 -26 30 -56.667 28 -92h-67c-2 20.667 -10.333 37.5 -25 50.5s-33.667 19.5 -57 19.5h-140c-14.667 0 -29.334 -2.83301 -44.001 -8.5s-28.167 -13.334 -40.5 -23.001s-23.166 -21 -32.499 -34s-16 -26.833 -20 -41.5
s-4.83301 -28.5 -2.5 -41.5s7 -24.5 14 -34.5s16.333 -17.833 28 -23.5s24.834 -8.5 39.501 -8.5h140c16 0 30.667 -2 44 -6h3c10 -4 20.333 -9 31 -15c5.33301 -3.33301 10 -6.83301 14 -10.5l12 -11.5c14 -16.667 22.833 -36.167 26.5 -58.5s2.16699 -45.833 -4.5 -70.5z
" />
    <glyph glyph-name="T" unicode="T" horiz-adv-x="555" 
d="M505 624l-17 -65h-210l-150 -560h-65l150 560h-210l17 65h485v0z" />
    <glyph glyph-name="U" unicode="U" horiz-adv-x="647" 
d="M597 624l-102.001 -381.998c-11.333 -43.333 -32.833 -83.833 -64.5 -121.5s-69.167 -67.167 -112.5 -88.5c-21.333 -10.667 -43 -18.834 -65 -24.501s-43.667 -8.5 -65 -8.5c-43.333 0 -80.666 11 -111.999 33c-32 21.333 -53.833 50.833 -65.5 88.5
s-11.834 78.167 -0.500977 121.5l102 382h65l-103 -384c-11.333 -48.667 -4.66602 -90 20.001 -124c12.667 -16.667 28.5 -29.5 47.5 -38.5s40.167 -13.5 63.5 -13.5s47 4.5 71 13.5s46.667 21.833 68 38.5s39.333 35.667 54 57s25 43.666 31 66.999l103 384h65z" />
    <glyph glyph-name="V" unicode="V" horiz-adv-x="638" 
d="M530 624h58l-415 -625h-90l-82 625h59l15 -117l18 -140l44 -333l221 333l94 140l78 117v0z" />
    <glyph glyph-name="W" unicode="W" horiz-adv-x="935" 
d="M885 624l-357 -625h-83l-20 553l-315 -553h-84l-22 625h67l20 -538l307 538h92l20 -538l307 538h68v0z" />
    <glyph glyph-name="X" unicode="X" horiz-adv-x="706" 
d="M527 -1h-78l-109 283l-262 -283h-77l315 342l-111 283h78l59 -150l29 -74l207 224h78l-219 -236l-43 -47l133 -342v0z" />
    <glyph glyph-name="Y" unicode="Y" horiz-adv-x="612" 
d="M562 624l-350 -378l-66 -247h-66l63 247l-9 30l-136 348h79l120 -309l287 309h78v0z" />
    <glyph glyph-name="Z" unicode="Z" horiz-adv-x="703" 
d="M157 127l-75 -62h421l-17 -66h-485l23 88l545 472h-348l17 65h415l-23 -88l-473 -409v0z" />
    <glyph glyph-name="a" unicode="a" horiz-adv-x="636" 
d="M505 624l81 -625h-58l-18 141h-358l-94 -141h-58l415 625h90zM195 206h306l-50 384z" />
    <glyph glyph-name="b" unicode="b" horiz-adv-x="662" 
d="M518 287c9.33301 -16 15.002 -33.833 17.002 -53.5s0.333008 -40.167 -5 -61.5c-6 -24 -16.333 -46.5 -31 -67.5s-31.834 -39.333 -51.501 -55s-41.167 -28 -64.5 -37s-47 -13.5 -71 -13.5h-312l166 625h313c24 0 45.167 -4.5 63.5 -13.5s33.333 -21.333 45 -37
s19.167 -33.834 22.5 -54.501s1.66602 -43 -5.00098 -67c-11.333 -43.333 -36 -81.666 -74 -114.999l-29 -25zM156.002 344h247.999c14.667 0 29.334 2.83301 44.001 8.5s28.167 13.5 40.5 23.5s23 21.5 32 34.5s15.5 26.833 19.5 41.5c8 30 4.5 55.333 -10.5 76
s-37.5 31 -67.5 31h-248zM329.001 64c14.667 0 29.333 2.83301 44 8.5s28.167 13.5 40.5 23.5s23 21.5 32 34.5s15.5 26.833 19.5 41.5c8 30 4.5 55.333 -10.5 76s-37.5 31 -67.5 31h-248l-58 -215h248z" />
    <glyph glyph-name="c" unicode="c" horiz-adv-x="694" 
d="M481 136l66.998 -0.00390625c-8 -17.333 -18.667 -33.666 -32 -48.999s-28.333 -29.333 -45 -42c-20 -14 -40.833 -24.833 -62.5 -32.5s-43.167 -11.5 -64.5 -11.5h-210c-10 0 -19.5 0.833008 -28.5 2.5s-18.167 4.16699 -27.5 7.5
c-1.33301 0.666992 -2.5 1.33398 -3.5 2.00098s-2.16699 1.33398 -3.5 2.00098c-0.666992 0 -1 0.166992 -1 0.5s-0.333008 0.5 -1 0.5s-1.33398 0.333008 -2.00098 1l-4 2l-4 2h-1l-3 3c-1.33301 0.666992 -2.66602 1.66699 -3.99902 3s-2.66602 2 -3.99902 2l-3 3
c-1.33301 0.666992 -2 1.16699 -2 1.5s-0.333008 0.833008 -1 1.5c-1.33301 0.666992 -2.66602 1.66699 -3.99902 3s-2 2.66602 -2 3.99902h-1c-1.33301 1.33301 -2 2.33301 -2 3c-0.666992 0.666992 -1.33398 1.16699 -2.00098 1.5s-1.33398 0.833008 -2.00098 1.5v1l-1 1
l-2 2c-1.33301 2.66699 -3 5 -5 7c-0.666992 1.33301 -1.16699 2.5 -1.5 3.5s-0.833008 2.16699 -1.5 3.5c-0.666992 0 -1 0.166992 -1 0.5s-0.333008 0.5 -1 0.5c0.666992 0.666992 0.666992 1.33398 0 2.00098s-1 1.33398 -1 2.00098s-0.333008 1.33398 -1 2.00098
c0 1.33301 -0.333008 2.33301 -1 3l-2 4c0 0.666992 -0.166992 1.16699 -0.5 1.5s-0.5 1.16602 -0.5 2.49902c-0.666992 0.666992 -1 2 -1 4s-0.333008 3.33301 -1 4c0 1.33301 -0.333008 2.66602 -1 3.99902c-0.666992 0.666992 -0.833984 1.33398 -0.500977 2.00098
s0.166016 1.33398 -0.500977 2.00098v3v2c-0.666992 0.666992 -1 1.16699 -1 1.5s-0.333008 0.833008 -1 1.5c0.666992 0.666992 0.666992 1.66699 0 3l1 2c-0.666992 0 -1 0.666992 -1 2v1c-0.666992 9.33301 -0.666992 18.833 0 28.5s2.33398 19.5 5.00098 29.5l74 280
c3.33301 10 7 19.667 11 29s8.66699 18.666 14 27.999c14 22.667 30.667 42 50 58c26 22 54 38 84 48c20 6 40 9 60 9h210c21.333 0 40.833 -3.66699 58.5 -11s32.834 -18 45.501 -32c20.667 -26 30 -56.667 28 -92h-67c-2.66699 20.667 -11.167 37.5 -25.5 50.5
s-33.166 19.5 -56.499 19.5h-212h-1c-14 0 -28 -2.83301 -42 -8.5s-27.667 -13.5 -41 -23.5c-25.333 -20.667 -42.333 -45.667 -51 -75l-75 -280c-3.33301 -14 -4.16602 -27.5 -2.49902 -40.5s6.16699 -24.5 13.5 -34.5c16 -21.333 37.667 -32.333 65 -33h1h212
c23.333 0 45.833 6.66699 67.5 20s39.167 30 52.5 50z" />
    <glyph glyph-name="d" unicode="d" horiz-adv-x="731" 
d="M680 509c2 -18 0.00488281 -36.999 -5.99512 -56.999l-75 -280c-4.66699 -19.333 -12.667 -38.666 -24 -57.999l-2 -1c0 -0.666992 -0.166992 -1.16699 -0.5 -1.5s-0.5 -0.833008 -0.5 -1.5c-0.666992 -0.666992 -1.16699 -1.33398 -1.5 -2.00098
s-0.833008 -1.33398 -1.5 -2.00098c-1.33301 -1.33301 -2.33301 -2.66602 -3 -3.99902l-1 -1c0 -0.666992 -0.666992 -1.66699 -2 -3c-2 -2 -3 -3.33301 -3 -4v-1l-3 -3c-0.666992 -1.33301 -1.33398 -2.16602 -2.00098 -2.49902s-1 -0.833008 -1 -1.5l-4 -4
c-0.666992 -0.666992 -1.16699 -1.33398 -1.5 -2.00098s-0.833008 -1.33398 -1.5 -2.00098s-1.33398 -1.16699 -2.00098 -1.5s-1.33398 -1.16602 -2.00098 -2.49902l-3 -3l-3 -3l-1 -1c-1.33301 -1.33301 -2.33301 -2 -3 -2c0 -0.666992 -0.333008 -1 -1 -1l-3.5 -3.5
l-3.5 -3.5c-2 -2 -5 -4.33301 -9 -7l-2 -2l-2 -1l-2 -2c-0.666992 -0.666992 -1.16699 -1 -1.5 -1s-0.833008 -0.333008 -1.5 -1c-1.33301 -0.666992 -2.66602 -1.66699 -3.99902 -3l-2 -1c-1.33301 -1.33301 -2.66602 -2.33301 -3.99902 -3
s-2.16602 -1.16699 -2.49902 -1.5s-1.16602 -0.833008 -2.49902 -1.5l-2 -1c-0.666992 -0.666992 -1.16699 -1 -1.5 -1s-0.833008 -0.333008 -1.5 -1c-1.33301 -1.33301 -2.66602 -2 -3.99902 -2l-1 -1c-0.666992 -0.666992 -1.33398 -1 -2.00098 -1
s-1.33398 -0.333008 -2.00098 -1l-2 -1l-4 -2c-0.666992 -0.666992 -1.66699 -1 -3 -1c-0.666992 -0.666992 -1.16699 -1 -1.5 -1s-0.833008 -0.333008 -1.5 -1s-1.33398 -1 -2.00098 -1s-1.33398 -0.333008 -2.00098 -1c-1.33301 -0.666992 -2.33301 -1 -3 -1
s-1.66699 -0.333008 -3 -1c-0.666992 -0.666992 -1.33398 -1 -2.00098 -1c-0.666992 -0.666992 -1.33398 -1 -2.00098 -1c-2 -0.666992 -3.83301 -1.33398 -5.5 -2.00098s-3.5 -1.33398 -5.5 -2.00098h-1c-9.33301 -3.33301 -19 -5.83301 -29 -7.5s-20 -2.5 -30 -2.5h-382
l166 625h383c19.333 0 37.666 -3 54.999 -9c25.333 -10 45 -26 59 -48c10 -17.333 16 -36.666 18 -57.999zM609.005 452.001c4 14 5.16797 27.5 3.50098 40.5s-6.16699 24.5 -13.5 34.5c-14.667 21.333 -36.334 32 -65.001 32h-321l-133 -495h318h3
c29.333 1.33301 57 12.333 83 33s42.667 45.667 50 75z" />
    <glyph glyph-name="e" unicode="e" horiz-adv-x="701" 
d="M214 559l-58 -215h350l-17 -65h-350l-58 -215h420l-17 -65h-382h-38h-64l17 65v0l47 178l10 37l17 65v0l48 178l10 37l17 65h485l-17 -65h-420v0z" />
    <glyph glyph-name="f" unicode="f" horiz-adv-x="630" 
d="M213 560l-58 -215h278l-17 -65h-278l-75 -280h-64l74 280h-2l17 65h2l48 178l10 37l17 65h415l-17 -65h-350v0z" />
    <glyph glyph-name="g" unicode="g" 
d="M586 275l-27.0029 -102.004c-6.66699 -24.667 -18 -48.167 -34 -70.5s-35 -41.833 -57 -58.5c-20 -14 -40.833 -24.833 -62.5 -32.5s-43.167 -11.5 -64.5 -11.5h-210c-10 0 -19.5 0.833008 -28.5 2.5s-18.167 4.16699 -27.5 7.5
c-1.33301 0.666992 -2.5 1.33398 -3.5 2.00098s-2.16699 1.33398 -3.5 2.00098c-0.666992 0 -1 0.166992 -1 0.5s-0.333008 0.5 -1 0.5s-1.33398 0.333008 -2.00098 1l-4 2l-4 2h-1l-3 3c-1.33301 0.666992 -2.66602 1.66699 -3.99902 3s-2.66602 2 -3.99902 2l-3 3
c-1.33301 0.666992 -2 1.16699 -2 1.5s-0.333008 0.833008 -1 1.5c-1.33301 0.666992 -2.66602 1.66699 -3.99902 3s-2 2.66602 -2 3.99902h-1c-1.33301 1.33301 -2 2.33301 -2 3c-0.666992 0.666992 -1.33398 1.16699 -2.00098 1.5s-1.33398 0.833008 -2.00098 1.5v1l-1 1
l-2 2c-1.33301 2.66699 -3 5 -5 7c-0.666992 1.33301 -1.16699 2.5 -1.5 3.5s-0.833008 2.16699 -1.5 3.5c-0.666992 0 -1 0.166992 -1 0.5s-0.333008 0.5 -1 0.5c0.666992 0.666992 0.666992 1.33398 0 2.00098s-1 1.33398 -1 2.00098s-0.333008 1.33398 -1 2.00098
c0 1.33301 -0.333008 2.33301 -1 3l-2 4c-0.666992 0.666992 -1 2 -1 4c-0.666992 0.666992 -1 2 -1 4s-0.333008 3.33301 -1 4c0 1.33301 -0.333008 2.66602 -1 3.99902c-0.666992 0.666992 -0.833984 1.33398 -0.500977 2.00098s0.166016 1.33398 -0.500977 2.00098v3v2
c-0.666992 0.666992 -1 1.16699 -1 1.5s-0.333008 0.833008 -1 1.5c0.666992 0.666992 0.666992 1.66699 0 3l1 2c-0.666992 0 -1 0.666992 -1 2v1c-0.666992 9.33301 -0.666992 18.833 0 28.5s2.33398 19.5 5.00098 29.5l74 280c3.33301 10 7 19.667 11 29
s8.66699 18.666 14 27.999c14 22.667 30.667 42 50 58c26 22 54 38 84 48c20 6 40 9 60 9h210c21.333 0 40.833 -3.66699 58.5 -11s32.834 -18 45.501 -32c20.667 -26 30 -56.667 28 -92h-67c-2.66699 20.667 -11.167 37.5 -25.5 50.5s-33.166 19.5 -56.499 19.5h-212h-1
c-14 0 -28 -2.83301 -42 -8.5s-27.667 -13.5 -41 -23.5c-25.333 -20.667 -42.333 -45.667 -51 -75l-75 -280c-3.33301 -14 -4.16602 -27.5 -2.49902 -40.5s6.16699 -24.5 13.5 -34.5c16 -21.333 37.667 -32.333 65 -33h1h212c14.667 0 29.334 2.83301 44.001 8.5
s28.167 13.5 40.5 23.5s23 21.5 32 34.5s15.5 26.833 19.5 41.5l11 37h-71l17 65h135z" />
    <glyph glyph-name="h" unicode="h" horiz-adv-x="771" 
d="M721 624l-167 -625h-65l75 280h-425l-75 -280h-64l64 243l10 37l17 65v0l75 280h65l-75 -280h425l75 280h65v0z" />
    <glyph glyph-name="i" unicode="i" horiz-adv-x="281" 
d="M231 624l-167 -625h-64l166 625h65v0z" />
    <glyph glyph-name="j" unicode="j" horiz-adv-x="585" 
d="M535 625l-112 -417c-10.667 -40 -31 -77 -61 -111s-65.667 -59.667 -107 -77c-32 -13.333 -63.333 -20 -94 -20s-58.667 6.66699 -84 20c-31.333 17.333 -53.166 43 -65.499 77s-13.5 71 -3.5 111l10 34h65l-10 -34c-5.33301 -20 -6.5 -38.667 -3.5 -56
s9.16699 -32.5 18.5 -45.5s21.666 -23.167 36.999 -30.5s33 -11 53 -11c19.333 0 38.333 3.5 57 10.5s36.667 17.167 54 30.5s31.833 28.5 43.5 45.5s20.167 35.167 25.5 54.5l112 419h65z" />
    <glyph glyph-name="k" unicode="k" horiz-adv-x="668" 
d="M521 -1h-80l-132 305l-224 -231l-20 -75h-64l166 625h65l-117 -437l149 153l118 122l156 162h80l-254 -262l157 -362v0z" />
    <glyph glyph-name="l" unicode="l" horiz-adv-x="482" 
d="M432 64l-17 -65h-414l166 625h65l-150 -560h350v0z" />
    <glyph glyph-name="m" unicode="m" horiz-adv-x="982" 
d="M932 622l-167 -623h-64l109 407l32 119l-95 -98l-357 -395l-143 391l-46 85l-136 -509h-64l166 623h83l172 -470l424 470h86v0z" />
    <glyph glyph-name="n" unicode="n" horiz-adv-x="772" 
d="M722 623l-167 -624h-82l-260 542l-145 -542h-64l166 624h85l258 -538l144 538h65v0z" />
    <glyph glyph-name="o" unicode="o" 
d="M640 511c2 -18 0.00488281 -37.0059 -5.99512 -57.0059l-75 -280c-4.66699 -19.333 -12.667 -38.666 -24 -57.999l-2 -1c0 -0.666992 -0.166992 -1.16699 -0.5 -1.5s-0.5 -0.833008 -0.5 -1.5c-0.666992 -0.666992 -1.16699 -1.33398 -1.5 -2.00098
s-0.833008 -1.33398 -1.5 -2.00098c-1.33301 -1.33301 -2.33301 -2.66602 -3 -3.99902l-1 -1c0 -0.666992 -0.666992 -1.66699 -2 -3c-2 -2 -3 -3.33301 -3 -4v-1l-3 -3c-0.666992 -1.33301 -1.33398 -2.16602 -2.00098 -2.49902s-1 -0.833008 -1 -1.5l-4 -4
c-0.666992 -0.666992 -1.16699 -1.33398 -1.5 -2.00098s-0.833008 -1.33398 -1.5 -2.00098s-1.33398 -1.16699 -2.00098 -1.5s-1.33398 -1.16602 -2.00098 -2.49902l-3 -3l-3 -3l-1 -1c-1.33301 -1.33301 -2.33301 -2 -3 -2c0 -0.666992 -0.333008 -1 -1 -1l-3.5 -3.5
l-3.5 -3.5c-2 -2 -5 -4.33301 -9 -7l-2 -2l-2 -1l-2 -2c-0.666992 -0.666992 -1.16699 -1 -1.5 -1s-0.833008 -0.333008 -1.5 -1c-1.33301 -0.666992 -2.66602 -1.66699 -3.99902 -3l-2 -1c-1.33301 -1.33301 -2.66602 -2.33301 -3.99902 -3
s-2.16602 -1.16699 -2.49902 -1.5s-1.16602 -0.833008 -2.49902 -1.5l-2 -1c-0.666992 -0.666992 -1.16699 -1 -1.5 -1s-0.833008 -0.333008 -1.5 -1c-1.33301 -1.33301 -2.66602 -2 -3.99902 -2l-1 -1c-0.666992 -0.666992 -1.33398 -1 -2.00098 -1
s-1.33398 -0.333008 -2.00098 -1l-2 -1l-4 -2l-4 -2l-2 -1c-0.666992 -0.666992 -1.33398 -1 -2.00098 -1s-1.33398 -0.333008 -2.00098 -1c-1.33301 -0.666992 -2.33301 -1 -3 -1s-1.66699 -0.333008 -3 -1c-0.666992 -0.666992 -1.33398 -1 -2.00098 -1
c-0.666992 -0.666992 -1.33398 -1 -2.00098 -1c-2 -0.666992 -3.83301 -1.33398 -5.5 -2.00098s-3.5 -1.33398 -5.5 -2.00098h-1c-9.33301 -3.33301 -19 -5.83301 -29 -7.5s-20 -2.5 -30 -2.5h-210c-10 0 -19.5 0.833008 -28.5 2.5s-18.167 4.16699 -27.5 7.5
c-1.33301 0.666992 -2.5 1.33398 -3.5 2.00098s-2.16699 1.33398 -3.5 2.00098c-0.666992 0 -1.33398 0.333008 -2.00098 1l-2 1l-4 2l-4 2l-2 2l-2 1l-4 2v1c-0.666992 0.666992 -1.33398 1 -2.00098 1s-1.33398 0.333008 -2.00098 1l1 1
c-1.33301 0 -2.66602 0.666992 -3.99902 2c-1.33301 0.666992 -1.66602 1.33398 -0.999023 2.00098c-0.666992 0 -1.16699 0.166992 -1.5 0.5s-0.833008 0.5 -1.5 0.5c-1.33301 1.33301 -2 2.33301 -2 3c-1.33301 0.666992 -2.66602 1.66699 -3.99902 3v1
c-1.33301 1.33301 -2 2.33301 -2 3c-0.666992 0.666992 -1.16699 1 -1.5 1s-0.833008 0.333008 -1.5 1v2c-0.666992 0 -1.33398 0.333008 -2.00098 1l-2 2c-1.33301 2.66699 -3 5 -5 7c-0.666992 1.33301 -1.16699 2.5 -1.5 3.5s-0.833008 2.16699 -1.5 3.5
c-0.666992 0 -1 0.333008 -1 1c0.666992 0 0.333984 0.666992 -0.999023 2l-1 1c0.666992 0.666992 0.333984 1.66699 -0.999023 3c0 1.33301 -0.333008 2.33301 -1 3l-2 4c-0.666992 0.666992 -0.833984 1.33398 -0.500977 2.00098s0.166016 1.33398 -0.500977 2.00098
l-1 4c0 1.33301 -0.333008 2.66602 -1 3.99902c0 1.33301 -0.333008 2.33301 -1 3v1c-0.666992 0.666992 -0.833984 1.33398 -0.500977 2.00098s0.166016 1.33398 -0.500977 2.00098v3l-1 1c0 2 -0.333008 3.33301 -1 4
c0.666992 0.666992 0.833984 1.33398 0.500977 2.00098s-0.166016 1.33398 0.500977 2.00098c-0.666992 0.666992 -1 1.66699 -1 3c0.666992 0.666992 0.666992 1 -0 1c-0.666992 9.33301 -0.666992 18.833 0 28.5s2.33398 19.5 5.00098 29.5l74 280
c3.33301 10 7 19.667 11 29s8.66699 18.666 14 27.999c14 22.667 30.667 42 50 58c26 22 54 38 84 48c20 6 40 9 60 9h210c19.333 0 37.666 -3 54.999 -9c25.333 -10 45 -26 59 -48c10 -17.333 16 -36.666 18 -57.999zM569.005 453.994c4 14 5.16699 27.5 3.5 40.5
s-6.16699 24.5 -13.5 34.5c-14.667 21.333 -36.334 32 -65.001 32h-1h-214h-1c-14 0 -28 -2.83301 -42 -8.5s-27.667 -13.5 -41 -23.5c-25.333 -20.667 -42.333 -45.667 -51 -75l-75 -280c-3.33301 -14 -4.16602 -27.5 -2.49902 -40.5s6.16699 -24.5 13.5 -34.5
c16 -21.333 37.333 -32.333 64 -33h4h210h3c29.333 1.33301 57 12.333 83 33s42.667 45.667 50 75z" />
    <glyph glyph-name="p" unicode="p" horiz-adv-x="666" 
d="M483 624c24 0 45.168 -4.5 63.501 -13.5s33.333 -21.333 45 -37s19.167 -33.834 22.5 -54.501s1.66602 -43 -5.00098 -67c-11.333 -43.333 -36 -81.666 -74 -114.999c-21.333 -18.667 -44.5 -33 -69.5 -43s-49.833 -15 -74.5 -15h-248l-75 -280h-64l166 625h313z
M408.001 344c14.667 0 29.333 2.83301 44 8.5s28.167 13.5 40.5 23.5s23 21.5 32 34.5s15.5 26.833 19.5 41.5c8 30 4.5 55.333 -10.5 76s-37.5 31 -67.5 31h-248l-58 -215h248z" />
    <glyph glyph-name="q" unicode="q" horiz-adv-x="631" 
d="M580 460c2 -15.333 0.336914 -32.334 -4.99609 -51.001l-68 -255c-2.66699 -8.66699 -5.83398 -17.167 -9.50098 -25.5s-8.16699 -16.833 -13.5 -25.5c-11.333 -19.333 -25.666 -36.333 -42.999 -51c-21.333 -18 -43.666 -31 -66.999 -39l37 -76h-33l-33 67
c-11.333 -2 -22 -3 -32 -3h-191c-18 0 -34.333 3 -49 9c-22.667 8 -39.667 22 -51 42c-10 14.667 -16 31.667 -18 51c-1.33301 18.667 0.333984 35.667 5.00098 51l68 255c4.66699 17.333 12.334 34.333 23.001 51c12 18.667 27 35.667 45 51
c11.333 10 23.166 18.5 35.499 25.5s25.166 12.833 38.499 17.5c9.33301 3.33301 18.166 5.5 26.499 6.5s17.166 1.5 26.499 1.5h191c8.66699 0 17.167 -0.5 25.5 -1.5s16.166 -3.16699 23.499 -6.5c23.333 -9.33301 40.666 -23.666 51.999 -42.999
c9.33301 -14.667 14.666 -31.667 15.999 -51zM407.004 83.999c24.667 19.333 40.667 42.665 48 69.998l68 255c7.33301 28 4 51.667 -10 71c-12.667 18.667 -33.334 28.667 -62.001 30h-195h-1c-13.333 -0.666992 -26.666 -3.5 -39.999 -8.5s-25.666 -12.167 -36.999 -21.5
c-24.667 -19.333 -40.667 -43 -48 -71l-68 -255c-7.33301 -27.333 -4 -50.666 10 -69.999c13.333 -19.333 33.666 -29.666 60.999 -30.999h188l-31 64h33l30 -60c18.667 4 36.667 13 54 27z" />
    <glyph glyph-name="r" unicode="r" horiz-adv-x="666" 
d="M522 -1l-78.999 0.000976562l-123 280h-177l-75 -280h-64l166 625h313c24 0 45.167 -4.5 63.5 -13.5s33.333 -21.333 45 -37s19.167 -33.834 22.5 -54.501s1.66602 -43 -5.00098 -67c-11.333 -43.333 -36 -81.666 -74 -114.999c-12 -10.667 -25 -19.834 -39 -27.501
s-28.333 -14.167 -43 -19.5l-51 -17zM408.001 344.001c14.667 0 29.333 2.83301 44 8.5s28.167 13.5 40.5 23.5s23 21.5 32 34.5s15.5 26.833 19.5 41.5c8 30 4.5 55.333 -10.5 76s-37.5 31 -67.5 31h-248l-58 -215h248z" />
    <glyph glyph-name="s" unicode="s" horiz-adv-x="624" 
d="M492 172c-6.66699 -24.667 -17.8301 -48.168 -33.4971 -70.501s-34.834 -41.833 -57.501 -58.5c-38.667 -27.333 -79.334 -41.666 -122.001 -42.999l-5 -1h-97v2l-38 -1h-3l-2 -1c-43.333 0 -77.666 14.667 -102.999 44c-10.667 12.667 -18.334 26.667 -23.001 42
s-6.33398 31.666 -5.00098 48.999h66c2 -20 10.333 -36.667 25 -50s33.667 -20 57 -20h140c14.667 0 29.334 2.83301 44.001 8.5s28.167 13.5 40.5 23.5s23.166 21.5 32.499 34.5s16 26.833 20 41.5c8 30 4.33301 55.333 -11 76s-38 31 -68 31h-140
c-16.667 0 -31.334 2 -44.001 6c-12 3.33301 -23 8.33301 -33 15s-18.667 14.334 -26 23.001c-14.667 16.667 -24 36.167 -28 58.5s-2.66699 45.833 4 70.5s18 48.167 34 70.5s35.667 41.833 59 58.5c40 28.667 82 43 126 43h2h3l38 -1v1h97h5
c42.667 -1.33301 75.667 -15.666 99 -42.999c20.667 -26 30 -56.667 28 -92h-67c-2 20.667 -10.333 37.5 -25 50.5s-33.667 19.5 -57 19.5h-140c-14.667 0 -29.334 -2.83301 -44.001 -8.5s-28.167 -13.334 -40.5 -23.001s-23.166 -21 -32.499 -34s-16 -26.833 -20 -41.5
s-4.83301 -28.5 -2.5 -41.5s7 -24.5 14 -34.5s16.333 -17.833 28 -23.5s24.834 -8.5 39.501 -8.5h140c16 0 30.667 -2 44 -6h3c10 -4 20.333 -9 31 -15c5.33301 -3.33301 10 -6.83301 14 -10.5l12 -11.5c14 -16.667 22.833 -36.167 26.5 -58.5s2.16699 -45.833 -4.5 -70.5z
" />
    <glyph glyph-name="t" unicode="t" horiz-adv-x="555" 
d="M505 624l-17 -65h-210l-150 -560h-65l150 560h-210l17 65h485v0z" />
    <glyph glyph-name="u" unicode="u" horiz-adv-x="647" 
d="M597 624l-102.001 -381.998c-11.333 -43.333 -32.833 -83.833 -64.5 -121.5s-69.167 -67.167 -112.5 -88.5c-21.333 -10.667 -43 -18.834 -65 -24.501s-43.667 -8.5 -65 -8.5c-43.333 0 -80.666 11 -111.999 33c-32 21.333 -53.833 50.833 -65.5 88.5
s-11.834 78.167 -0.500977 121.5l102 382h65l-103 -384c-11.333 -48.667 -4.66602 -90 20.001 -124c12.667 -16.667 28.5 -29.5 47.5 -38.5s40.167 -13.5 63.5 -13.5s47 4.5 71 13.5s46.667 21.833 68 38.5s39.333 35.667 54 57s25 43.666 31 66.999l103 384h65z" />
    <glyph glyph-name="v" unicode="v" horiz-adv-x="638" 
d="M530 624h58l-415 -625h-90l-82 625h59l15 -117l18 -140l44 -333l221 333l94 140l78 117v0z" />
    <glyph glyph-name="w" unicode="w" horiz-adv-x="935" 
d="M885 624l-357 -625h-83l-20 553l-315 -553h-84l-22 625h67l20 -538l307 538h92l20 -538l307 538h68v0z" />
    <glyph glyph-name="x" unicode="x" horiz-adv-x="706" 
d="M527 -1h-78l-109 283l-262 -283h-77l315 342l-111 283h78l59 -150l29 -74l207 224h78l-219 -236l-43 -47l133 -342v0z" />
    <glyph glyph-name="y" unicode="y" horiz-adv-x="612" 
d="M562 624l-350 -378l-66 -247h-66l63 247l-9 30l-136 348h79l120 -309l287 309h78v0z" />
    <glyph glyph-name="z" unicode="z" horiz-adv-x="703" 
d="M157 127l-75 -62h421l-17 -66h-485l23 88l545 472h-348l17 65h415l-23 -88l-473 -409v0z" />
    <glyph glyph-name=".null" horiz-adv-x="0" 
 />
    <glyph glyph-name="_0127" horiz-adv-x="0" 
 />
  </font>
</defs>
</svg>
