<svg xmlns="http://www.w3.org/2000/svg" height="76.459" width="76.877"><path d="M1.23 75.2c-1.828-1.828-1.548-13.309.372-15.229 1.855-1.855 7.517-2.083 9.228-.371.934.933 1.467.933 2.4 0 1.475-1.474 5.27-1.554 7.866-.165 1.62.867 1.934 2.135 1.934 7.8 0 3.928-.503 7.268-1.2 7.965-.757.758-4.555 1.2-10.3 1.2-5.744 0-9.542-.442-10.3-1.2zm19.598-7.55l.298-6.25h-3.348c-1.841 0-3.868.52-4.505 1.158-.877.876-1.516.86-2.635-.069-.812-.674-2.969-1.082-4.792-.907-3.207.308-3.326.477-3.625 5.19-.49 7.696-.426 7.746 9.543 7.417l8.766-.289zM55.23 75.2c-.696-.697-1.2-4.037-1.2-7.965 0-5.665.315-6.933 1.935-7.8 2.39-1.279 7.749-1.357 8.51-.123.331.534 1.789.449 3.524-.206 2.01-.76 3.853-.804 5.746-.141 2.634.923 2.802 1.347 3.083 7.795.182 4.167-.157 7.369-.872 8.23-1.52 1.83-18.929 2.007-20.726.21zm19.598-7.55l.298-6.25h-3.061c-1.684 0-4.014.563-5.179 1.25-1.693 1-2.207 1-2.57 0-.257-.71-2.144-1.25-4.369-1.25H56.03v5.833c0 3.209.317 6.15.703 6.536.387.387 4.55.574 9.25.417l8.547-.286zM26.03 67.4c0-.613 4.834-1 12.5-1 7.667 0 12.5.387 12.5 1s-4.833 1-12.5 1c-7.666 0-12.5-.387-12.5-1zM8.265 55.856c-4.695-1.974-5.592-6.461-2.162-10.821 4.075-5.18 12.927-2.343 12.927 4.142 0 5.97-5.03 9.091-10.765 6.68zm8.18-4.676c2.109-6.034-6.201-9.233-9.35-3.598-1.37 2.453-1.335 2.862.418 4.798 2.781 3.074 7.668 2.418 8.932-1.2zm45.915 4.716c-4.908-2.063-5.905-7.667-2.015-11.322 3.074-2.888 7.724-2.826 10.511.14 5.661 6.026-.736 14.445-8.496 11.182zm7.099-3.067c2.024-2.024 1.995-4.304-.084-6.6-2.058-2.274-5.117-2.345-7.516-.174-2.269 2.054-2.325 4.14-.174 6.516 2.031 2.245 5.667 2.365 7.774.258zm-55.756-14.15c-.743-1.201 9.034-10.906 10.007-9.933.399.399-1.559 3.01-4.35 5.8-2.791 2.792-5.337 4.651-5.657 4.133zm43.85-4.256c-2.696-2.737-4.581-5.298-4.19-5.69.734-.733 10.667 8.467 10.667 9.88 0 1.724-1.796.563-6.477-4.19zm-27.523-.752c-.825-.314-1.83-1.066-2.234-1.67-1.208-1.81-.867-13.1.434-14.401 1.498-1.497 8.025-1.575 9.488-.113.782.783 1.275.783 1.759 0 .907-1.468 7.856-1.384 9.353.113.697.697 1.2 4.037 1.2 7.965 0 5.665-.314 6.933-1.934 7.8-2.011 1.076-15.444 1.304-18.066.306zm17.798-8.521c-.288-6.04-.393-6.26-3.136-6.575-1.61-.184-3.604.368-4.607 1.275-1.608 1.456-1.886 1.458-3.076.024-.804-.968-2.498-1.46-4.393-1.275-2.934.286-3.1.54-3.395 5.174-.483 7.594-.44 7.627 9.826 7.627h9.079zM33.103 11.765C28.895 6.416 31.855 0 38.53 0c6.794 0 10.044 7.662 5.186 12.226-3.275 3.076-7.992 2.872-10.613-.46zm9.391-1.325c3.752-4.146-.778-10.22-5.887-7.893-3.316 1.511-4.136 4.35-2.136 7.402 1.95 2.977 5.572 3.2 8.023.491z" fill="#fd4e4e"/></svg>