<svg xmlns="http://www.w3.org/2000/svg" height="76.612" width="68.988"><path d="M27.488 76.108c-1.883-.358-2.212-.873-1.67-2.614.371-1.193.907-8.018 1.191-15.168l.516-13-6.096-18.297c-3.353-10.064-6.096-18.686-6.096-19.162 0-.475 4.706-2.44 10.457-4.365L36.246 0l8.586 3.58c4.862 2.028 8.37 4.05 8.087 4.664-3.728 8.084-8.005 20.051-9.232 25.828-2.063 9.714-1.345 25.078 1.55 33.193 1.236 3.464 1.748 6.309 1.23 6.827-2.124 2.124-12.573 3.234-18.979 2.016zm6.556-7.532c-.765-7.059-2.72-15.75-3.544-15.75-.367 0-.667 2.362-.667 5.25 0 2.887-.316 7.612-.703 10.5l-.703 5.25h6.186zm7.747 4.319c.316-.513-.525-2.552-1.869-4.533-1.344-1.981-2.64-4.15-2.88-4.82-1.006-2.81-1.27.167-.445 5.034.7 4.138 1.284 5.25 2.753 5.25 1.026 0 2.124-.42 2.44-.931zm-3.506-17.487c-2.609-9.408-3.946-22.254-3.949-37.94-.002-10.663-.29-13.75-1.253-13.395-.687.253-4.244 1.448-7.904 2.656l-6.653 2.196 2.462 8.019c4.698 15.297 16.774 44.882 18.32 44.882.416 0-.044-2.888-1.023-6.418zm2.063-15.332c.021-5.451 2.553-15.35 6.11-23.897 1.708-4.101 2.94-7.58 2.74-7.73-1.74-1.298-11.203-4.618-11.712-4.108-.86.862-.668 24.133.27 32.735.785 7.195 2.567 9.258 2.592 3zM13.833 69.898C9.08 66.523 3.897 59.585 1.68 53.625.733 51.08.05 46.012.007 41.203c-.065-7.17.295-8.871 3.07-14.51 3.39-6.884 8.415-12.505 10.196-11.404.699.432-.359 2.342-2.885 5.212-12.68 14.405-9.614 37.832 6.268 47.905 2.533 1.606 4.62 3.257 4.64 3.67.08 1.614-3.656.524-7.463-2.178zm37.5.493c0-.24 2.406-2.84 5.346-5.78 7.295-7.295 10.013-14.45 9.418-24.785-.47-8.168-2.596-13.462-7.77-19.354-3.35-3.816-3.633-4.646-1.583-4.646 2.047 0 6.516 5.658 9.477 12 3.72 7.964 3.685 20.099-.08 28.196-2.787 5.996-10.69 14.804-13.281 14.804-.84 0-1.527-.196-1.527-.435z" fill="#fd4a4a"/></svg>