<svg xmlns="http://www.w3.org/2000/svg" height="76.909" width="67.029"><path d="M26.704 76.243c-1.278-1.279-.655-7.099.897-8.387.935-.776 1.348-2.16 1.027-3.439-.727-2.9 1.986-6.508 4.894-6.508 3.493 0 5.742 2.69 5.016 5.997-.432 1.965-.161 2.92.947 3.345 1.087.417 1.552 1.954 1.552 5.127v4.531h-6.833c-3.759 0-7.134-.3-7.5-.666zm3.403-5.334c.511 0 .93.9.93 2 0 1.467.667 2 2.5 2s2.5-.533 2.5-2c0-1.1.45-2 1-2s1 .9 1 2 .45 2 1 2c1.416 0 1.24-3.288-.286-5.377-.965-1.32-2.385-1.68-5.684-1.44-3.81.275-4.492.676-5.11 3.004-.392 1.478-.422 2.983-.067 3.345.356.362.79-.285.967-1.437.175-1.152.738-2.095 1.25-2.095zm5.92-6.487c1.753-2.113.502-4.513-2.352-4.513-2.785 0-4.21 2.605-2.533 4.627 1.483 1.787 3.343 1.744 4.884-.114zM.703 59.242c-1.391-1.39-.592-6.417 1.274-8.014C3.34 50.06 3.76 48.773 3.385 46.9c-.346-1.73.051-3.248 1.131-4.328 3.5-3.5 8.911-.985 8.357 3.885-.21 1.843.321 3.608 1.414 4.701 1 1 1.75 3.25 1.75 5.25v3.5H8.704c-4.034 0-7.634-.3-8-.666zm3.333-3.333c0-1.1.45-2 1-2s1 .9 1 2c0 3.049 4.951 2.808 5.136-.25l.136-2.25.434 2.25c.238 1.238.852 2.25 1.364 2.25 1.347 0 1.143-4.387-.27-5.8-1.474-1.474-6.254-1.562-8.866-.165-1.992 1.067-2.76 5.965-.934 5.965.55 0 1-.9 1-2zm6.5-10c0-1.833-.602-2.585-2.254-2.82-1.353-.192-2.496.308-2.857 1.25-.996 2.595.4 4.74 2.857 4.39 1.652-.234 2.254-.987 2.254-2.82zm41.206 13.373c-1.388-1.388-.673-6.406 1.178-8.256 1.2-1.202 1.713-2.775 1.413-4.343-.539-2.818 1.868-5.774 4.703-5.774s5.242 2.956 4.703 5.774c-.303 1.586.22 3.149 1.472 4.402 1.301 1.3 1.84 2.996 1.634 5.133l-.309 3.191-7.044.29c-3.874.16-7.361-.028-7.75-.417zm3.294-3.373c0-1.1.47-2 1.044-2 .574 0 .911.788.75 1.75-.211 1.258.48 1.84 2.456 2.067 2.27.26 2.774-.088 2.886-2l.136-2.317.434 2.25c.567 2.946 2.294 2.908 2.294-.05 0-3.257-1.841-4.7-6-4.7-1.98 0-4.14.54-4.8 1.2-1.45 1.451-1.6 5.8-.2 5.8.55 0 1-.9 1-2zm6.5-10c0-1.833-.602-2.585-2.254-2.82-2.458-.349-3.853 1.796-2.857 4.39.361.942 1.504 1.442 2.857 1.25 1.652-.234 2.254-.987 2.254-2.82zm-28.5 8.625c0-.756-1.287-1.632-2.86-1.947-1.574-.315-4.28-1.766-6.015-3.226-1.735-1.46-3.779-2.415-4.542-2.122-2.037.781-2.794-.454-1.061-1.731 1.158-.854 1.282-1.824.554-4.349-.574-1.994-.58-4.49-.016-6.46.587-2.045.562-3.568-.07-4.2-1.48-1.48-1.195-2.606.495-1.957.817.313 2.831-.563 4.476-1.947 1.645-1.384 4.352-2.815 6.015-3.18 1.663-.366 3.024-1.304 3.024-2.085 0-.782.477-1.42 1.059-1.42s.79.436.46.969c-.33.533 1.1 1.68 3.177 2.548 2.077.868 4.772 2.513 5.99 3.656 1.217 1.144 2.896 1.817 3.731 1.496.835-.32 1.787-.149 2.114.38.328.53-.041 1.209-.82 1.507-.887.341-1.24 1.456-.946 2.993.676 3.54-.405 3.01-2.388-1.168-3.211-6.767-12.04-9.466-18.494-5.654-2.83 1.672-6.906 8.407-6.861 11.338.051 3.362 3.981 9.885 6.85 11.368 6.851 3.543 15.942.648 18.702-5.956 1.708-4.088 2.868-4.57 2.166-.899-.313 1.638.01 2.772.884 3.107 2.122.814 1.628 2.529-.531 1.844-1.24-.394-2.81.23-4.486 1.783-1.418 1.314-4.047 2.831-5.842 3.37-1.796.54-3.152 1.508-3.015 2.15.138.642-.2 1.167-.75 1.167s-1-.619-1-1.375zm-6.292-7.25c-1.376-1.376-.74-9.103.856-10.428.935-.776 1.348-2.16 1.027-3.439-.719-2.865 1.974-6.508 4.81-6.508 3.146 0 6.001 3.354 5.262 6.18-.351 1.344.026 2.924.937 3.931 1.004 1.11 1.418 3.17 1.212 6.037l-.312 4.352-6.542.291c-3.599.16-6.861-.027-7.25-.417zm3.355-7.375c.516 0 .937 1.35.937 3 0 2.534.389 3 2.5 3 2.111 0 2.5-.466 2.5-3 0-1.65.45-3 1-3s1 1.35 1 3 .45 3 1 3c1.595 0 1.156-5.7-.571-7.428-1.877-1.877-7.765-2.083-9.21-.322-.563.688-1.118 2.375-1.233 3.75-.322 3.874.284 4.901.737 1.25.222-1.787.825-3.25 1.34-3.25zm6.443-6.009c1.062-1.718-.545-4.99-2.45-4.99-2.804 0-4.598 2.642-3.056 4.5 1.42 1.71 4.578 1.992 5.506.49zm-35.256-.632c-1.79-.753-1.542-5.497.436-8.32.927-1.324 1.714-3.771 1.75-5.438.142-6.72 8.993-6.488 9.124.239.033 1.695.852 3.958 1.82 5.028 1.134 1.253 1.647 3.135 1.44 5.289l-.32 3.343-6.5.192c-3.575.106-7.062-.044-7.75-.333zm2.75-3.918c0-1.451.433-2.291 1-1.94.55.34 1 1.522 1 2.628 0 3.014 4.221 2.082 5.11-1.129.634-2.294.699-2.32.79-.309.055 1.205.582 2.489 1.171 2.853.7.433.96-.497.75-2.69-.304-3.181-.543-3.37-4.645-3.665-2.378-.171-4.966.222-5.75.873-1.619 1.343-1.948 5.938-.426 5.938.55 0 1-1.151 1-2.559zm6.804-9.572c.348-2.99-2.225-4.594-4.43-2.764-1.702 1.412-1.754 3.115-.145 4.724 1.916 1.916 4.24.92 4.575-1.96zm41.446 13.469c-1.802-.727-1.537-5.483.466-8.342.943-1.347 1.587-3.667 1.431-5.155-.208-1.986.399-3.152 2.285-4.388 2.409-1.579 2.73-1.577 5.168.021 2.05 1.343 2.51 2.32 2.173 4.617-.288 1.962.17 3.452 1.4 4.566 2.298 2.08 2.461 7.886.245 8.736-1.86.714-11.36.674-13.168-.055zm2.75-3.897c0-1.495.427-2.295 1.027-1.924.564.348.902 1.388.75 2.309-.198 1.193.442 1.674 2.223 1.674 1.67 0 2.504-.558 2.513-1.68.007-.923.344-2.01.75-2.416.405-.405.737.211.737 1.37 0 1.16.45 2.386 1 2.726 1.101.68 1.35-2.425.393-4.918-.737-1.922-8.368-2.207-10.193-.382-1.45 1.451-1.6 5.8-.2 5.8.55 0 1-1.151 1-2.559zm5.418-7.048c2.001-.768 2.046-3.762.082-5.393-1.197-.993-1.803-.993-3 0-1.821 1.512-1.968 4.645-.25 5.338.688.277 1.326.54 1.418.583.093.044.88-.194 1.75-.528zm-34.418-8.424c0-2.62.513-4.229 1.466-4.594.912-.35 1.42-1.79 1.344-3.812-.136-3.636.864-5.882 2.24-5.032.521.323.41 1.362-.26 2.435-.907 1.454-.875 2.226.144 3.454 1.669 2.011 3.465 2.011 5.134 0 1.061-1.278 1.072-1.967.054-3.597-1.684-2.696-.354-3.86 1.505-1.32.805 1.099 1.222 2.96.928 4.134-.311 1.244.087 2.651.956 3.372.851.707 1.49 2.899 1.49 5.115v3.877h-15zm3.717-.969c.398-1.069.746-.782 1.212 1 .405 1.551 1.491 2.621 2.862 2.82 1.788.258 2.209-.17 2.209-2.25 0-3.436 1.768-3.294 2.243.18.33 2.409.482 2.516 1.226.864 1.402-3.113-.69-5.082-5.758-5.416-5.418-.357-7.112 1.57-5.757 6.552.112.413.429.075.704-.75.275-.825.752-2.175 1.059-3z" fill="#fd4c4c"/></svg>