<svg xmlns="http://www.w3.org/2000/svg" height="77.038" width="76.344"><path d="M21.253 76.37c-.367-.366-.667-2.362-.667-4.436 0-3.522.214-3.79 3.25-4.083 2.64-.255 3.236-.736 3.171-2.563-.064-1.828.458-2.25 2.781-2.25 3.271 0 4.732-2.42 2.951-4.886-2.22-3.076-2.412-4.261-1.087-6.736 1.226-2.292 1.1-2.67-1.596-4.82-1.708-1.363-4.889-2.566-7.644-2.893C11.088 42.363 3.04 33.97.565 20.923-1.503 10.022 2.148 4.466 10.836 5.293c4.67.443 4.75.402 4.75-2.421V0l22.732.269L61.05.538 61.068 3c.017 2.3.324 2.444 4.634 2.183 8.72-.529 12.307 5.685 9.92 17.183-2.333 11.24-11.308 20.087-21.614 21.308-2.992.354-6.128 1.515-7.892 2.921-2.746 2.19-2.84 2.495-1.524 4.953 1.11 2.074 1.15 2.971.192 4.305-3.299 4.592-2.66 7.185 1.771 7.185 2.567 0 3.031.383 3.031 2.5 0 2.11.467 2.5 3 2.5 2.89 0 3 .166 3 4.5v4.5H38.753c-9.258 0-17.133-.3-17.5-.667zm32.333-3.832v-2.5h-31v5h31zm-6.5-6.5c0-1.192-1.73-1.56-8.407-1.793-8.244-.288-11.009.5-9.623 2.743.452.731 3.73 1.024 9.363.837 6.91-.23 8.667-.592 8.667-1.787zm-6-6c0-1.954-.572-2.567-2.623-2.805-2.123-.246-2.715.179-3.106 2.227-.601 3.142-.027 3.749 3.192 3.373 1.961-.228 2.537-.863 2.537-2.795zm2-6c0-1.058-1.293-1.593-4.385-1.815-4.55-.325-6.853.81-5.637 2.779 1.087 1.758 10.022.898 10.022-.964zm2.433-8.935c3.006-2.898 6.115-7.184 7.529-10.382 2.74-6.198 5.538-18.644 5.538-24.641V6.038h-41v3.316c0 13.443 7.111 32.264 13.477 35.671 1.37.733 2.753 2.16 3.074 3.173 1.127 3.55 5.808 2.277 11.382-3.095zm-17.35-4.931c-.43-.697-.513-1.538-.183-1.868.895-.895 1.871.422 1.388 1.872-.34 1.016-.575 1.015-1.205-.004zm-3.44-5.884c-1.521-2.874-3.04-9.25-2.203-9.25.428 0 1.69 2.475 2.804 5.5 1.889 5.128 1.48 7.678-.6 3.75zm-.39 6.51c-.227-.683-2.122-1.72-4.211-2.307C11.6 36.098 4.586 26.038 4.586 16.2c0-4.874 1.418-6.162 6.784-6.162 3.059 0 4.26-.378 3.973-1.25C14.88 7.38 9.467 6.6 6.075 7.45-1.64 9.387 1.928 29.211 11.4 37.046c4.951 4.096 13.921 6.696 12.94 3.751zm34.53-.109c8.55-3.583 14.632-12.72 15.478-23.255.427-5.317.207-6.429-1.634-8.27-2.104-2.104-7.133-2.829-10.545-1.52-3.01 1.156-1.564 2.394 2.796 2.394 5.838 0 7.047 1.598 6.346 8.39-1.011 9.799-7.63 18.619-15.01 20.004-3.898.73-6.01 3.606-2.65 3.606 1.1 0 3.449-.607 5.219-1.349zm-37.772-5.401c-.661-1.645-4.16-15.995-5.133-21.056-.392-2.036-.937-2.27-4.66-2-3.855.28-4.247.562-4.556 3.287-.76 6.69 3.987 15.809 10.204 19.6 3.898 2.377 5.051 2.423 4.145.169zm39.973-1.119c4.618-3.798 7.242-8.34 8.4-14.536 1.095-5.863-.02-7.595-4.888-7.595-3.735 0-3.932.163-4.529 3.75-.823 4.949-3.935 17.258-4.959 19.615-.702 1.616-.489 1.767 1.591 1.132 1.32-.404 3.294-1.468 4.385-2.366zM59.586 3.038c0-1.36-41.66-1.36-42.5 0-.404.654 6.823 1 20.941 1 13.706 0 21.56-.365 21.56-1zM12.563 62.51c-.962-1.16-.962-1.785 0-2.945 1.076-1.296 1.398-1.296 2.694 0 1.296 1.297 1.296 1.649 0 2.945-1.296 1.296-1.618 1.296-2.694 0zm43.023-4.472c0-.55.45-1 1-1s1 .45 1 1-.45 1-1 1-1-.45-1-1zm-34.5-7c.34-.55.817-1 1.06-1 .242 0 .44.45.44 1s-.476 1-1.059 1c-.582 0-.78-.45-.44-1zm40.696-.555c-1.075-1.218-1.065-1.718.056-2.84 1.134-1.134 1.665-1.14 3.177-.034 1.64 1.2 1.666 1.477.265 2.878-1.86 1.86-1.854 1.86-3.498-.004z" fill="#fd4c4c"/></svg>