<svg xmlns="http://www.w3.org/2000/svg" height="139.063" width="242.667"><path d="M0 138.387c0-.553 22.123-28.083 46.512-57.88 6.048-7.39 24.77-30.516 42.076-51.978 7.29-9.04 15.718-19.158 18.729-22.483L112.79 0l45.938.225c25.266.124 48.039.596 50.605 1.048 12.514 2.205 23.454 10.445 29.24 22.022 3.43 6.867 4.094 9.747 4.094 17.782 0 10.63-1.508 16.196-6.404 23.653l-3.284 5 3.284 5c4.866 7.41 6.404 13.014 6.404 23.341 0 16.806-9 30.408-25.25 38.167-5.71 2.726-7.713 2.825-57.079 2.825h-51.161l.163-12.333c.09-6.784.126-13.095.079-14.025-.067-1.326-6.647-1.614-30.413-1.334l-30.327.359-10.673 13.559-10.673 13.558-13.666.108C6.15 139.015 0 138.76 0 138.387zm211.12-30.807c4.497-4.497 5.74-10.987 3.086-16.119-3.903-7.548-4.617-7.731-30.074-7.731h-23.465l-.38 13.666-.38 13.667h47.729zM110.365 60.063c.2-12.283-.122-22.333-.717-22.333-1.659 0-36.6 43.794-35.878 44.969.348.567 8.643.73 18.431.364L110 82.396zm97.678-5.69c5.214-2.696 8.423-9.071 7.375-14.656-.973-5.189-6.657-11.294-10.6-11.387-14.957-.356-42.499.123-43.524.757-1.44.89-1.811 25.016-.406 26.42.489.49 10.419.89 22.066.89 16.322 0 22.074-.464 25.089-2.023z" fill="#fff"/></svg>